solid numpad2468
facet normal 0.0 -1.0 0.0
outer loop
vertex 62.154016440250885 10.117652850724031 12.439999999999996
vertex 60.65401644025089 10.117652850724031 10.940000000000003
vertex 116.73530084849403 10.117652850724031 12.439999999999996
endloop
endfacet
facet normal 0.0 -1.0 0.0
outer loop
vertex 194.1540164402509 10.117652850724031 1.0574874309554614e-15
vertex 60.65401644025089 10.117652850724031 10.940000000000003
vertex 60.65401644025089 10.117652850724031 -1.762479051592436e-15
endloop
endfacet
facet normal 0.0 -1.0 0.0
outer loop
vertex 60.65401644025089 10.117652850724031 10.940000000000003
vertex 194.1540164402509 10.117652850724031 1.0574874309554614e-15
vertex 194.1540164402509 10.117652850724031 12.44
endloop
endfacet
facet normal 0.0 -1.0 0.0
outer loop
vertex 60.65401644025089 10.117652850724031 10.940000000000003
vertex 194.1540164402509 10.117652850724031 12.44
vertex 116.73530084849403 10.117652850724031 12.439999999999996
endloop
endfacet
facet normal 0.0 -1.0 0.0
outer loop
vertex 116.73530084849403 10.117652850724031 12.439999999999996
vertex 194.1540164402509 10.117652850724031 12.44
vertex 172.81658525673714 10.117652850724031 19.439999999999994
endloop
endfacet
facet normal 0.0 -1.0 0.0
outer loop
vertex 172.81658525673714 10.117652850724031 19.439999999999994
vertex 194.1540164402509 10.117652850724031 12.44
vertex 183.5540164402509 10.117652850724031 19.439999999999994
endloop
endfacet
facet normal 0.0 0.0 -1.0
outer loop
vertex 194.1540164402509 99.51765285072402 9.14
vertex 63.65401644025085 97.39765285072401 9.14
vertex 63.65401644025085 99.51765285072402 9.14
endloop
endfacet
facet normal 0.0 0.0 -1.0
outer loop
vertex 63.65401644025085 97.39765285072401 9.14
vertex 194.1540164402509 99.51765285072402 9.14
vertex 194.1540164402509 97.39765285072401 9.14
endloop
endfacet
facet normal 0.0 0.0 -1.0
outer loop
vertex 194.1540164402509 15.237652850724043 9.14
vertex 63.65401644025085 13.117652850724033 9.14
vertex 63.65401644025085 15.237652850724043 9.14
endloop
endfacet
facet normal 0.0 0.0 -1.0
outer loop
vertex 63.65401644025085 13.117652850724033 9.14
vertex 194.1540164402509 15.237652850724043 9.14
vertex 194.1540164402509 13.117652850724033 9.14
endloop
endfacet
facet normal -0.0 1.0 -0.0
outer loop
vertex 63.65401644025085 13.117652850724033 9.14
vertex 194.1540164402509 13.117652850724033 5.74
vertex 63.65401644025085 13.117652850724033 5.74
endloop
endfacet
facet normal -0.0 1.0 -0.0
outer loop
vertex 194.1540164402509 13.117652850724033 5.74
vertex 63.65401644025085 13.117652850724033 9.14
vertex 194.1540164402509 13.117652850724033 9.14
endloop
endfacet
facet normal 0.0 -1.0 0.0
outer loop
vertex 194.1540164402509 99.51765285072402 9.14
vertex 63.65401644025085 99.51765285072402 5.74
vertex 194.1540164402509 99.51765285072402 5.74
endloop
endfacet
facet normal 0.0 -1.0 0.0
outer loop
vertex 63.65401644025085 99.51765285072402 5.74
vertex 194.1540164402509 99.51765285072402 9.14
vertex 63.65401644025085 99.51765285072402 9.14
endloop
endfacet
facet normal 0.0 -0.7071067811865495 -0.7071067811865456
outer loop
vertex 174.81658525673714 96.39765285072401 15.440000000000001
vertex 172.81658525673714 97.39765285072401 14.439999999999998
vertex 183.5540164402509 97.39765285072401 14.439999999999998
endloop
endfacet
facet normal 0.11370781785050085 -0.9935142334962682 -7.004902759661622e-18
outer loop
vertex 183.5540164402509 97.39765285072401 19.439999999999994
vertex 174.81658525673714 96.39765285072401 15.440000000000001
vertex 183.5540164402509 97.39765285072401 14.439999999999998
endloop
endfacet
facet normal 0.11370781785050085 -0.9935142334962682 -7.004902759661622e-18
outer loop
vertex 174.81658525673714 96.39765285072401 15.440000000000001
vertex 183.5540164402509 97.39765285072401 19.439999999999994
vertex 174.81658525673714 96.39765285072401 18.439999999999994
endloop
endfacet
facet normal -0.4472135954999579 -0.8944271909999159 0.0
outer loop
vertex 174.81658525673714 96.39765285072401 15.440000000000001
vertex 172.81658525673714 97.39765285072401 19.439999999999994
vertex 172.81658525673714 97.39765285072401 14.439999999999998
endloop
endfacet
facet normal -0.4472135954999579 -0.8944271909999159 0.0
outer loop
vertex 172.81658525673714 97.39765285072401 19.439999999999994
vertex 174.81658525673714 96.39765285072401 15.440000000000001
vertex 174.81658525673714 96.39765285072401 18.439999999999994
endloop
endfacet
facet normal -6.48695133694002e-18 -0.7071067811865475 0.7071067811865475
outer loop
vertex 172.81658525673714 97.39765285072401 19.439999999999994
vertex 174.81658525673714 96.39765285072401 18.439999999999994
vertex 183.5540164402509 97.39765285072401 19.439999999999994
endloop
endfacet
facet normal 0.0 -1.0 0.0
outer loop
vertex 183.5540164402509 97.39765285072401 19.439999999999994
vertex 172.81658525673714 97.39765285072401 14.439999999999998
vertex 183.5540164402509 97.39765285072401 14.439999999999998
endloop
endfacet
facet normal 0.0 -1.0 0.0
outer loop
vertex 172.81658525673714 97.39765285072401 14.439999999999998
vertex 183.5540164402509 97.39765285072401 19.439999999999994
vertex 172.81658525673714 97.39765285072401 19.439999999999994
endloop
endfacet
facet normal -0.0 -0.0 1.0
outer loop
vertex 183.5540164402509 97.39765285072401 19.439999999999994
vertex 172.81658525673714 102.51765285072398 19.439999999999994
vertex 172.81658525673714 97.39765285072401 19.439999999999994
endloop
endfacet
facet normal -0.0 -0.0 1.0
outer loop
vertex 172.81658525673714 102.51765285072398 19.439999999999994
vertex 183.5540164402509 97.39765285072401 19.439999999999994
vertex 183.5540164402509 102.51765285072398 19.439999999999994
endloop
endfacet
facet normal -0.0 1.0 -0.0
outer loop
vertex 60.65401644025089 102.51765285072398 10.940000000000003
vertex 194.1540164402509 102.51765285072398 1.0574874309554614e-15
vertex 60.65401644025087 102.51765285072398 -1.762479051592436e-15
endloop
endfacet
facet normal -0.0 1.0 -0.0
outer loop
vertex 194.1540164402509 102.51765285072398 1.0574874309554614e-15
vertex 60.65401644025089 102.51765285072398 10.940000000000003
vertex 194.1540164402509 102.51765285072398 12.44
endloop
endfacet
facet normal -0.0 1.0 -0.0
outer loop
vertex 194.1540164402509 102.51765285072398 12.44
vertex 60.65401644025089 102.51765285072398 10.940000000000003
vertex 116.735300848494 102.51765285072398 12.439999999999996
endloop
endfacet
facet normal -0.0 1.0 -0.0
outer loop
vertex 116.735300848494 102.51765285072398 12.439999999999996
vertex 60.65401644025089 102.51765285072398 10.940000000000003
vertex 62.154016440250885 102.51765285072398 12.439999999999996
endloop
endfacet
facet normal -0.0 1.0 -0.0
outer loop
vertex 194.1540164402509 102.51765285072398 12.44
vertex 116.735300848494 102.51765285072398 12.439999999999996
vertex 172.81658525673714 102.51765285072398 19.439999999999994
endloop
endfacet
facet normal -0.0 1.0 -0.0
outer loop
vertex 194.1540164402509 102.51765285072398 12.44
vertex 172.81658525673714 102.51765285072398 19.439999999999994
vertex 183.5540164402509 102.51765285072398 19.439999999999994
endloop
endfacet
facet normal -0.0 0.7071067811865495 -0.7071067811865456
outer loop
vertex 174.81658525673714 16.237652850724043 15.440000000000001
vertex 183.5540164402509 15.237652850724043 14.439999999999998
vertex 172.81658525673714 15.237652850724043 14.439999999999998
endloop
endfacet
facet normal -3.24347566847001e-18 0.7071067811865475 0.7071067811865475
outer loop
vertex 183.5540164402509 15.237652850724043 19.439999999999994
vertex 174.81658525673714 16.237652850724043 18.439999999999994
vertex 172.81658525673714 15.237652850724043 19.439999999999994
endloop
endfacet
facet normal -0.4472135954999579 0.8944271909999159 -0.0
outer loop
vertex 172.81658525673714 15.237652850724043 19.439999999999994
vertex 174.81658525673714 16.237652850724043 15.440000000000001
vertex 172.81658525673714 15.237652850724043 14.439999999999998
endloop
endfacet
facet normal -0.4472135954999579 0.8944271909999159 -0.0
outer loop
vertex 174.81658525673714 16.237652850724043 15.440000000000001
vertex 172.81658525673714 15.237652850724043 19.439999999999994
vertex 174.81658525673714 16.237652850724043 18.439999999999994
endloop
endfacet
facet normal 0.11370781785050085 0.9935142334962682 1.1709464700260244e-18
outer loop
vertex 174.81658525673714 16.237652850724043 15.440000000000001
vertex 183.5540164402509 15.237652850724043 19.439999999999994
vertex 183.5540164402509 15.237652850724043 14.439999999999998
endloop
endfacet
facet normal 0.11370781785050085 0.9935142334962682 1.1709464700260244e-18
outer loop
vertex 183.5540164402509 15.237652850724043 19.439999999999994
vertex 174.81658525673714 16.237652850724043 15.440000000000001
vertex 174.81658525673714 16.237652850724043 18.439999999999994
endloop
endfacet
facet normal 1.0 -1.8701868082556353e-17 -9.80389225552254e-16
outer loop
vertex 63.65401644025084 19.557652850724033 5.74
vertex 63.65401644025085 13.117652850724033 9.14
vertex 63.65401644025085 13.117652850724033 5.74
endloop
endfacet
facet normal 1.0 -1.8701868082556353e-17 -9.80389225552254e-16
outer loop
vertex 63.65401644025085 13.117652850724033 9.14
vertex 63.65401644025084 19.557652850724033 5.74
vertex 63.65401644025085 15.237652850724043 9.14
endloop
endfacet
facet normal 1.0 -1.8701868082556353e-17 -9.80389225552254e-16
outer loop
vertex 63.65401644025084 93.26765285072405 3.300000000000001
vertex 63.65401644025084 19.557652850724033 5.74
vertex 63.65401644025084 19.557652850724033 3.300000000000001
endloop
endfacet
facet normal 1.0 -1.8701868082556353e-17 -9.80389225552254e-16
outer loop
vertex 63.65401644025085 99.51765285072402 5.74
vertex 63.65401644025085 97.39765285072401 9.14
vertex 63.65401644025084 93.26765285072405 5.74
endloop
endfacet
facet normal 1.0 -1.8701868082556353e-17 -9.80389225552254e-16
outer loop
vertex 63.65401644025085 97.39765285072401 9.14
vertex 63.65401644025085 99.51765285072402 5.74
vertex 63.65401644025085 99.51765285072402 9.14
endloop
endfacet
facet normal 1.0 -1.8701868082556353e-17 -9.80389225552254e-16
outer loop
vertex 63.65401644025085 15.237652850724043 9.14
vertex 63.65401644025085 97.39765285072401 12.439999999999996
vertex 63.65401644025085 15.237652850724032 12.439999999999996
endloop
endfacet
facet normal 1.0 -1.8701868082556353e-17 -9.80389225552254e-16
outer loop
vertex 63.65401644025085 97.39765285072401 12.439999999999996
vertex 63.65401644025085 15.237652850724043 9.14
vertex 63.65401644025084 19.557652850724033 5.74
endloop
endfacet
facet normal 1.0 -1.8701868082556353e-17 -9.80389225552254e-16
outer loop
vertex 63.65401644025085 97.39765285072401 12.439999999999996
vertex 63.65401644025084 19.557652850724033 5.74
vertex 63.65401644025084 93.26765285072405 5.74
endloop
endfacet
facet normal 1.0 -1.8701868082556353e-17 -9.80389225552254e-16
outer loop
vertex 63.65401644025084 93.26765285072405 5.74
vertex 63.65401644025084 19.557652850724033 5.74
vertex 63.65401644025084 93.26765285072405 3.300000000000001
endloop
endfacet
facet normal 1.0 -1.8701868082556353e-17 -9.80389225552254e-16
outer loop
vertex 63.65401644025085 97.39765285072401 12.439999999999996
vertex 63.65401644025084 93.26765285072405 5.74
vertex 63.65401644025085 97.39765285072401 9.14
endloop
endfacet
facet normal -0.12385771808686234 -0.0 0.9922999877407614
outer loop
vertex 172.81658525673714 97.39765285072401 19.439999999999994
vertex 116.735300848494 102.51765285072398 12.439999999999996
vertex 116.735300848494 97.39765285072401 12.439999999999996
endloop
endfacet
facet normal -0.12385771808686234 -0.0 0.9922999877407614
outer loop
vertex 116.735300848494 102.51765285072398 12.439999999999996
vertex 172.81658525673714 97.39765285072401 19.439999999999994
vertex 172.81658525673714 102.51765285072398 19.439999999999994
endloop
endfacet
facet normal -7.502712999821797e-17 1.0 5.3935886518069914e-17
outer loop
vertex 63.65401644025085 15.237652850724032 12.439999999999996
vertex 194.1540164402509 15.237652850724043 9.14
vertex 63.65401644025085 15.237652850724043 9.14
endloop
endfacet
facet normal -7.502712999821797e-17 1.0 5.3935886518069914e-17
outer loop
vertex 194.1540164402509 15.237652850724043 9.14
vertex 63.65401644025085 15.237652850724032 12.439999999999996
vertex 116.73530084849403 15.23765285072402 12.439999999999996
endloop
endfacet
facet normal -7.502712999821797e-17 1.0 5.3935886518069914e-17
outer loop
vertex 194.1540164402509 15.237652850724043 9.14
vertex 116.73530084849403 15.23765285072402 12.439999999999996
vertex 194.1540164402509 15.237652850724043 12.44
endloop
endfacet
facet normal -7.502712999821797e-17 1.0 5.3935886518069914e-17
outer loop
vertex 194.1540164402509 15.237652850724043 12.44
vertex 116.73530084849403 15.23765285072402 12.439999999999996
vertex 172.81658525673714 15.237652850724043 14.439999999999998
endloop
endfacet
facet normal -7.502712999821797e-17 1.0 5.3935886518069914e-17
outer loop
vertex 172.81658525673714 15.237652850724043 14.439999999999998
vertex 116.73530084849403 15.23765285072402 12.439999999999996
vertex 172.81658525673714 15.237652850724043 19.439999999999994
endloop
endfacet
facet normal -7.502712999821797e-17 1.0 5.3935886518069914e-17
outer loop
vertex 194.1540164402509 15.237652850724043 12.44
vertex 183.5540164402509 15.237652850724043 14.439999999999998
vertex 183.5540164402509 15.237652850724043 19.439999999999994
endloop
endfacet
facet normal -7.502712999821797e-17 1.0 5.3935886518069914e-17
outer loop
vertex 183.5540164402509 15.237652850724043 14.439999999999998
vertex 194.1540164402509 15.237652850724043 12.44
vertex 172.81658525673714 15.237652850724043 14.439999999999998
endloop
endfacet
facet normal 0.0 -1.0 0.0
outer loop
vertex 183.5540164402509 97.39765285072401 19.439999999999994
vertex 183.5540164402509 97.39765285072401 14.439999999999998
vertex 194.1540164402509 97.39765285072401 12.44
endloop
endfacet
facet normal 0.0 -1.0 0.0
outer loop
vertex 194.1540164402509 97.39765285072401 12.44
vertex 63.65401644025085 97.39765285072401 9.14
vertex 194.1540164402509 97.39765285072401 9.14
endloop
endfacet
facet normal 0.0 -1.0 0.0
outer loop
vertex 63.65401644025085 97.39765285072401 9.14
vertex 194.1540164402509 97.39765285072401 12.44
vertex 116.735300848494 97.39765285072401 12.439999999999996
endloop
endfacet
facet normal 0.0 -1.0 0.0
outer loop
vertex 116.735300848494 97.39765285072401 12.439999999999996
vertex 194.1540164402509 97.39765285072401 12.44
vertex 172.81658525673714 97.39765285072401 14.439999999999998
endloop
endfacet
facet normal 0.0 -1.0 0.0
outer loop
vertex 116.735300848494 97.39765285072401 12.439999999999996
vertex 172.81658525673714 97.39765285072401 14.439999999999998
vertex 172.81658525673714 97.39765285072401 19.439999999999994
endloop
endfacet
facet normal 0.0 -1.0 0.0
outer loop
vertex 172.81658525673714 97.39765285072401 14.439999999999998
vertex 194.1540164402509 97.39765285072401 12.44
vertex 183.5540164402509 97.39765285072401 14.439999999999998
endloop
endfacet
facet normal 0.0 -1.0 0.0
outer loop
vertex 63.65401644025085 97.39765285072401 12.439999999999996
vertex 63.65401644025085 97.39765285072401 9.14
vertex 116.735300848494 97.39765285072401 12.439999999999996
endloop
endfacet
facet normal 0.5510615347417096 -0.0 0.8344646097517326
outer loop
vertex 194.1540164402509 97.39765285072401 12.44
vertex 183.5540164402509 102.51765285072398 19.439999999999994
vertex 183.5540164402509 97.39765285072401 19.439999999999994
endloop
endfacet
facet normal 0.5510615347417096 -0.0 0.8344646097517326
outer loop
vertex 183.5540164402509 102.51765285072398 19.439999999999994
vertex 194.1540164402509 97.39765285072401 12.44
vertex 194.1540164402509 102.51765285072398 12.44
endloop
endfacet
facet normal 2.1123344438561026e-17 2.835413377237758e-33 -1.0
outer loop
vertex 60.65401644025087 102.51765285072398 -1.762479051592436e-15
vertex 91.05401644025086 55.277652850724024 1.4099832412739487e-15
vertex 60.65401644025089 10.117652850724031 -1.762479051592436e-15
endloop
endfacet
facet normal 2.1123344438561026e-17 2.835413377237758e-33 -1.0
outer loop
vertex 91.05401644025086 55.277652850724024 1.4099832412739487e-15
vertex 60.65401644025087 102.51765285072398 -1.762479051592436e-15
vertex 110.25401644025085 74.29765285072403 -2.114974861910923e-15
endloop
endfacet
facet normal 2.1123344438561026e-17 2.835413377237758e-33 -1.0
outer loop
vertex 110.25401644025085 74.29765285072403 -2.114974861910923e-15
vertex 60.65401644025087 102.51765285072398 -1.762479051592436e-15
vertex 194.1540164402509 102.51765285072398 1.0574874309554614e-15
endloop
endfacet
facet normal 2.1123344438561026e-17 2.835413377237758e-33 -1.0
outer loop
vertex 91.05401644025086 55.277652850724024 1.4099832412739487e-15
vertex 110.25401644025085 74.29765285072403 -2.114974861910923e-15
vertex 107.25401644025085 55.277652850724024 1.4099832412739487e-15
endloop
endfacet
facet normal 2.1123344438561026e-17 2.835413377237758e-33 -1.0
outer loop
vertex 107.25401644025085 55.277652850724024 1.4099832412739487e-15
vertex 110.25401644025085 74.29765285072403 -2.114974861910923e-15
vertex 107.25401644025085 38.547652850724035 1.4099832412739487e-15
endloop
endfacet
facet normal 2.1123344438561026e-17 2.835413377237758e-33 -1.0
outer loop
vertex 110.25401644025085 74.29765285072403 -2.114974861910923e-15
vertex 194.1540164402509 102.51765285072398 1.0574874309554614e-15
vertex 126.25401644025087 74.29765285072403 1.4099832412739487e-15
endloop
endfacet
facet normal 2.1123344438561026e-17 2.835413377237758e-33 -1.0
outer loop
vertex 126.25401644025087 74.29765285072403 1.4099832412739487e-15
vertex 194.1540164402509 102.51765285072398 1.0574874309554614e-15
vertex 126.25401644025087 57.35765285072404 1.4099832412739487e-15
endloop
endfacet
facet normal 2.1123344438561026e-17 2.835413377237758e-33 -1.0
outer loop
vertex 126.25401644025087 57.35765285072404 1.4099832412739487e-15
vertex 194.1540164402509 102.51765285072398 1.0574874309554614e-15
vertex 129.05401644025085 55.277652850724024 1.4099832412739487e-15
endloop
endfacet
facet normal 2.1123344438561026e-17 2.835413377237758e-33 -1.0
outer loop
vertex 126.25401644025087 57.35765285072404 1.4099832412739487e-15
vertex 129.05401644025085 55.277652850724024 1.4099832412739487e-15
vertex 126.25401644025087 36.45765285072403 5.639932965095795e-15
endloop
endfacet
facet normal 2.1123344438561026e-17 2.835413377237758e-33 -1.0
outer loop
vertex 126.25401644025087 36.45765285072403 5.639932965095795e-15
vertex 129.05401644025085 55.277652850724024 1.4099832412739487e-15
vertex 126.25401644025087 19.557652850724033 5.639932965095795e-15
endloop
endfacet
facet normal 2.1123344438561026e-17 2.835413377237758e-33 -1.0
outer loop
vertex 129.05401644025085 55.277652850724024 1.4099832412739487e-15
vertex 194.1540164402509 102.51765285072398 1.0574874309554614e-15
vertex 144.90401644025084 55.277652850724024 1.4099832412739487e-15
endloop
endfacet
facet normal 2.1123344438561026e-17 2.835413377237758e-33 -1.0
outer loop
vertex 144.90401644025084 55.277652850724024 1.4099832412739487e-15
vertex 194.1540164402509 102.51765285072398 1.0574874309554614e-15
vertex 144.90401644025084 38.547652850724035 1.4099832412739487e-15
endloop
endfacet
facet normal 2.1123344438561026e-17 2.835413377237758e-33 -1.0
outer loop
vertex 60.65401644025089 10.117652850724031 -1.762479051592436e-15
vertex 110.25401644025085 19.557652850724033 5.639932965095795e-15
vertex 194.1540164402509 10.117652850724031 1.0574874309554614e-15
endloop
endfacet
facet normal 2.1123344438561026e-17 2.835413377237758e-33 -1.0
outer loop
vertex 110.25401644025085 19.557652850724033 5.639932965095795e-15
vertex 60.65401644025089 10.117652850724031 -1.762479051592436e-15
vertex 91.05401644025086 38.547652850724035 1.4099832412739487e-15
endloop
endfacet
facet normal 2.1123344438561026e-17 2.835413377237758e-33 -1.0
outer loop
vertex 91.05401644025086 38.547652850724035 1.4099832412739487e-15
vertex 60.65401644025089 10.117652850724031 -1.762479051592436e-15
vertex 91.05401644025086 55.277652850724024 1.4099832412739487e-15
endloop
endfacet
facet normal 2.1123344438561026e-17 2.835413377237758e-33 -1.0
outer loop
vertex 110.25401644025085 19.557652850724033 5.639932965095795e-15
vertex 91.05401644025086 38.547652850724035 1.4099832412739487e-15
vertex 107.25401644025085 38.547652850724035 1.4099832412739487e-15
endloop
endfacet
facet normal 2.1123344438561026e-17 2.835413377237758e-33 -1.0
outer loop
vertex 110.25401644025085 19.557652850724033 5.639932965095795e-15
vertex 107.25401644025085 38.547652850724035 1.4099832412739487e-15
vertex 110.25401644025085 74.29765285072403 -2.114974861910923e-15
endloop
endfacet
facet normal 2.1123344438561026e-17 2.835413377237758e-33 -1.0
outer loop
vertex 110.25401644025085 19.557652850724033 5.639932965095795e-15
vertex 110.25401644025085 74.29765285072403 -2.114974861910923e-15
vertex 110.25401644025085 57.35765285072404 1.4099832412739487e-15
endloop
endfacet
facet normal 2.1123344438561026e-17 2.835413377237758e-33 -1.0
outer loop
vertex 110.25401644025085 19.557652850724033 5.639932965095795e-15
vertex 110.25401644025085 57.35765285072404 1.4099832412739487e-15
vertex 110.25401644025085 36.45765285072403 5.639932965095795e-15
endloop
endfacet
facet normal 2.1123344438561026e-17 2.835413377237758e-33 -1.0
outer loop
vertex 194.1540164402509 10.117652850724031 1.0574874309554614e-15
vertex 110.25401644025085 19.557652850724033 5.639932965095795e-15
vertex 126.25401644025087 19.557652850724033 5.639932965095795e-15
endloop
endfacet
facet normal 2.1123344438561026e-17 2.835413377237758e-33 -1.0
outer loop
vertex 194.1540164402509 10.117652850724031 1.0574874309554614e-15
vertex 126.25401644025087 19.557652850724033 5.639932965095795e-15
vertex 129.05401644025085 38.547652850724035 1.4099832412739487e-15
endloop
endfacet
facet normal 2.1123344438561026e-17 2.835413377237758e-33 -1.0
outer loop
vertex 129.05401644025085 38.547652850724035 1.4099832412739487e-15
vertex 126.25401644025087 19.557652850724033 5.639932965095795e-15
vertex 129.05401644025085 55.277652850724024 1.4099832412739487e-15
endloop
endfacet
facet normal 2.1123344438561026e-17 2.835413377237758e-33 -1.0
outer loop
vertex 194.1540164402509 10.117652850724031 1.0574874309554614e-15
vertex 129.05401644025085 38.547652850724035 1.4099832412739487e-15
vertex 144.90401644025084 38.547652850724035 1.4099832412739487e-15
endloop
endfacet
facet normal 2.1123344438561026e-17 2.835413377237758e-33 -1.0
outer loop
vertex 194.1540164402509 10.117652850724031 1.0574874309554614e-15
vertex 144.90401644025084 38.547652850724035 1.4099832412739487e-15
vertex 194.1540164402509 102.51765285072398 1.0574874309554614e-15
endloop
endfacet
facet normal 2.1123344438561026e-17 2.835413377237758e-33 -1.0
outer loop
vertex 126.25401644025087 57.35765285072404 1.4099832412739487e-15
vertex 110.25401644025085 36.45765285072403 5.639932965095795e-15
vertex 110.25401644025085 57.35765285072404 1.4099832412739487e-15
endloop
endfacet
facet normal 2.1123344438561026e-17 2.835413377237758e-33 -1.0
outer loop
vertex 110.25401644025085 36.45765285072403 5.639932965095795e-15
vertex 126.25401644025087 57.35765285072404 1.4099832412739487e-15
vertex 126.25401644025087 36.45765285072403 5.639932965095795e-15
endloop
endfacet
facet normal 1.0 -0.0 -0.0
outer loop
vertex 194.1540164402509 10.117652850724031 1.0574874309554614e-15
vertex 194.1540164402509 13.117652850724033 5.74
vertex 194.1540164402509 10.117652850724031 12.44
endloop
endfacet
facet normal 1.0 -0.0 -0.0
outer loop
vertex 194.1540164402509 13.117652850724033 5.74
vertex 194.1540164402509 10.117652850724031 1.0574874309554614e-15
vertex 194.1540164402509 19.557652850724033 3.300000000000001
endloop
endfacet
facet normal 1.0 -0.0 -0.0
outer loop
vertex 194.1540164402509 19.557652850724033 3.300000000000001
vertex 194.1540164402509 10.117652850724031 1.0574874309554614e-15
vertex 194.1540164402509 102.51765285072398 1.0574874309554614e-15
endloop
endfacet
facet normal 1.0 -0.0 -0.0
outer loop
vertex 194.1540164402509 19.557652850724033 3.300000000000001
vertex 194.1540164402509 102.51765285072398 1.0574874309554614e-15
vertex 194.1540164402509 93.26765285072405 3.300000000000001
endloop
endfacet
facet normal 1.0 -0.0 -0.0
outer loop
vertex 194.1540164402509 93.26765285072405 3.300000000000001
vertex 194.1540164402509 102.51765285072398 1.0574874309554614e-15
vertex 194.1540164402509 93.26765285072405 5.74
endloop
endfacet
facet normal 1.0 -0.0 -0.0
outer loop
vertex 194.1540164402509 93.26765285072405 5.74
vertex 194.1540164402509 102.51765285072398 1.0574874309554614e-15
vertex 194.1540164402509 99.51765285072402 5.74
endloop
endfacet
facet normal 1.0 -0.0 -0.0
outer loop
vertex 194.1540164402509 99.51765285072402 5.74
vertex 194.1540164402509 102.51765285072398 1.0574874309554614e-15
vertex 194.1540164402509 99.51765285072402 9.14
endloop
endfacet
facet normal 1.0 -0.0 -0.0
outer loop
vertex 194.1540164402509 99.51765285072402 9.14
vertex 194.1540164402509 97.39765285072401 12.44
vertex 194.1540164402509 97.39765285072401 9.14
endloop
endfacet
facet normal 1.0 -0.0 -0.0
outer loop
vertex 194.1540164402509 97.39765285072401 12.44
vertex 194.1540164402509 99.51765285072402 9.14
vertex 194.1540164402509 102.51765285072398 12.44
endloop
endfacet
facet normal 1.0 -0.0 -0.0
outer loop
vertex 194.1540164402509 102.51765285072398 12.44
vertex 194.1540164402509 99.51765285072402 9.14
vertex 194.1540164402509 102.51765285072398 1.0574874309554614e-15
endloop
endfacet
facet normal 1.0 -0.0 -0.0
outer loop
vertex 194.1540164402509 19.557652850724033 5.74
vertex 194.1540164402509 13.117652850724033 5.74
vertex 194.1540164402509 19.557652850724033 3.300000000000001
endloop
endfacet
facet normal 1.0 -0.0 -0.0
outer loop
vertex 194.1540164402509 10.117652850724031 12.44
vertex 194.1540164402509 13.117652850724033 9.14
vertex 194.1540164402509 15.237652850724043 12.44
endloop
endfacet
facet normal 1.0 -0.0 -0.0
outer loop
vertex 194.1540164402509 13.117652850724033 9.14
vertex 194.1540164402509 10.117652850724031 12.44
vertex 194.1540164402509 13.117652850724033 5.74
endloop
endfacet
facet normal 1.0 -0.0 -0.0
outer loop
vertex 194.1540164402509 15.237652850724043 12.44
vertex 194.1540164402509 13.117652850724033 9.14
vertex 194.1540164402509 15.237652850724043 9.14
endloop
endfacet
facet normal 0.5510615347417096 -0.0 0.8344646097517326
outer loop
vertex 194.1540164402509 10.117652850724031 12.44
vertex 183.5540164402509 15.237652850724043 19.439999999999994
vertex 183.5540164402509 10.117652850724031 19.439999999999994
endloop
endfacet
facet normal 0.5510615347417096 -0.0 0.8344646097517326
outer loop
vertex 183.5540164402509 15.237652850724043 19.439999999999994
vertex 194.1540164402509 10.117652850724031 12.44
vertex 194.1540164402509 15.237652850724043 12.44
endloop
endfacet
facet normal -0.0 -0.0 1.0
outer loop
vertex 183.5540164402509 10.117652850724031 19.439999999999994
vertex 172.81658525673714 15.237652850724043 19.439999999999994
vertex 172.81658525673714 10.117652850724031 19.439999999999994
endloop
endfacet
facet normal -0.0 -0.0 1.0
outer loop
vertex 172.81658525673714 15.237652850724043 19.439999999999994
vertex 183.5540164402509 10.117652850724031 19.439999999999994
vertex 183.5540164402509 15.237652850724043 19.439999999999994
endloop
endfacet
facet normal -0.1238577180868624 3.8004752453554645e-17 0.9922999877407614
outer loop
vertex 172.81658525673714 10.117652850724031 19.439999999999994
vertex 116.73530084849403 15.23765285072402 12.439999999999996
vertex 116.73530084849403 10.117652850724031 12.439999999999996
endloop
endfacet
facet normal -0.1238577180868624 3.8004752453554645e-17 0.9922999877407614
outer loop
vertex 116.73530084849403 15.23765285072402 12.439999999999996
vertex 172.81658525673714 10.117652850724031 19.439999999999994
vertex 172.81658525673714 15.237652850724043 19.439999999999994
endloop
endfacet
facet normal -0.0 -0.0 1.0
outer loop
vertex 62.154016440250885 10.117652850724031 12.439999999999996
vertex 63.65401644025085 15.237652850724032 12.439999999999996
vertex 62.154016440250885 102.51765285072398 12.439999999999996
endloop
endfacet
facet normal -0.0 -0.0 1.0
outer loop
vertex 63.65401644025085 15.237652850724032 12.439999999999996
vertex 62.154016440250885 10.117652850724031 12.439999999999996
vertex 116.73530084849403 10.117652850724031 12.439999999999996
endloop
endfacet
facet normal -0.0 -0.0 1.0
outer loop
vertex 63.65401644025085 15.237652850724032 12.439999999999996
vertex 116.73530084849403 10.117652850724031 12.439999999999996
vertex 116.73530084849403 15.23765285072402 12.439999999999996
endloop
endfacet
facet normal -0.0 -0.0 1.0
outer loop
vertex 62.154016440250885 102.51765285072398 12.439999999999996
vertex 63.65401644025085 97.39765285072401 12.439999999999996
vertex 116.735300848494 102.51765285072398 12.439999999999996
endloop
endfacet
facet normal -0.0 -0.0 1.0
outer loop
vertex 63.65401644025085 97.39765285072401 12.439999999999996
vertex 62.154016440250885 102.51765285072398 12.439999999999996
vertex 63.65401644025085 15.237652850724032 12.439999999999996
endloop
endfacet
facet normal -0.0 -0.0 1.0
outer loop
vertex 116.735300848494 102.51765285072398 12.439999999999996
vertex 63.65401644025085 97.39765285072401 12.439999999999996
vertex 116.735300848494 97.39765285072401 12.439999999999996
endloop
endfacet
facet normal -0.7071067811865469 -0.0 0.7071067811865481
outer loop
vertex 62.154016440250885 10.117652850724031 12.439999999999996
vertex 60.65401644025089 102.51765285072398 10.940000000000003
vertex 60.65401644025089 10.117652850724031 10.940000000000003
endloop
endfacet
facet normal -0.7071067811865469 -0.0 0.7071067811865481
outer loop
vertex 60.65401644025089 102.51765285072398 10.940000000000003
vertex 62.154016440250885 10.117652850724031 12.439999999999996
vertex 62.154016440250885 102.51765285072398 12.439999999999996
endloop
endfacet
facet normal -1.0 -1.2207647110596968e-16 1.3270430506107746e-15
outer loop
vertex 60.65401644025089 102.51765285072398 10.940000000000003
vertex 60.65401644025089 10.117652850724031 -1.762479051592436e-15
vertex 60.65401644025089 10.117652850724031 10.940000000000003
endloop
endfacet
facet normal -1.0 -1.2207647110596968e-16 1.3270430506107746e-15
outer loop
vertex 60.65401644025089 10.117652850724031 -1.762479051592436e-15
vertex 60.65401644025089 102.51765285072398 10.940000000000003
vertex 60.65401644025087 102.51765285072398 -1.762479051592436e-15
endloop
endfacet
facet normal 0.0 0.0 1.0
outer loop
vertex 63.65401644025085 13.117652850724033 5.74
vertex 194.1540164402509 19.557652850724033 5.74
vertex 63.65401644025084 19.557652850724033 5.74
endloop
endfacet
facet normal 0.0 0.0 1.0
outer loop
vertex 194.1540164402509 19.557652850724033 5.74
vertex 63.65401644025085 13.117652850724033 5.74
vertex 194.1540164402509 13.117652850724033 5.74
endloop
endfacet
facet normal -0.0 1.0 -0.0
outer loop
vertex 63.65401644025084 19.557652850724033 5.74
vertex 110.25401644025085 19.557652850724033 3.300000000000001
vertex 63.65401644025084 19.557652850724033 3.300000000000001
endloop
endfacet
facet normal -0.0 1.0 -0.0
outer loop
vertex 110.25401644025085 19.557652850724033 3.300000000000001
vertex 63.65401644025084 19.557652850724033 5.74
vertex 126.25401644025087 19.557652850724033 3.300000000000001
endloop
endfacet
facet normal -0.0 1.0 -0.0
outer loop
vertex 126.25401644025087 19.557652850724033 3.300000000000001
vertex 63.65401644025084 19.557652850724033 5.74
vertex 194.1540164402509 19.557652850724033 3.300000000000001
endloop
endfacet
facet normal -0.0 1.0 -0.0
outer loop
vertex 194.1540164402509 19.557652850724033 3.300000000000001
vertex 63.65401644025084 19.557652850724033 5.74
vertex 194.1540164402509 19.557652850724033 5.74
endloop
endfacet
facet normal -0.0 1.0 -0.0
outer loop
vertex 110.25401644025085 19.557652850724033 3.300000000000001
vertex 126.25401644025087 19.557652850724033 5.639932965095795e-15
vertex 110.25401644025085 19.557652850724033 5.639932965095795e-15
endloop
endfacet
facet normal -0.0 1.0 -0.0
outer loop
vertex 126.25401644025087 19.557652850724033 5.639932965095795e-15
vertex 110.25401644025085 19.557652850724033 3.300000000000001
vertex 126.25401644025087 19.557652850724033 3.300000000000001
endloop
endfacet
facet normal 0.0 0.0 1.0
outer loop
vertex 194.1540164402509 93.26765285072405 5.74
vertex 63.65401644025085 99.51765285072402 5.74
vertex 63.65401644025084 93.26765285072405 5.74
endloop
endfacet
facet normal 0.0 0.0 1.0
outer loop
vertex 63.65401644025085 99.51765285072402 5.74
vertex 194.1540164402509 93.26765285072405 5.74
vertex 194.1540164402509 99.51765285072402 5.74
endloop
endfacet
facet normal 0.0 -1.0 0.0
outer loop
vertex 194.1540164402509 93.26765285072405 5.74
vertex 63.65401644025084 93.26765285072405 3.300000000000001
vertex 194.1540164402509 93.26765285072405 3.300000000000001
endloop
endfacet
facet normal 0.0 -1.0 0.0
outer loop
vertex 63.65401644025084 93.26765285072405 3.300000000000001
vertex 194.1540164402509 93.26765285072405 5.74
vertex 63.65401644025084 93.26765285072405 5.74
endloop
endfacet
facet normal -0.0 -0.0 1.0
outer loop
vertex 63.65401644025084 19.557652850724033 3.300000000000001
vertex 91.05401644025086 38.547652850724035 3.300000000000001
vertex 63.65401644025084 93.26765285072405 3.300000000000001
endloop
endfacet
facet normal -0.0 -0.0 1.0
outer loop
vertex 91.05401644025086 38.547652850724035 3.300000000000001
vertex 63.65401644025084 19.557652850724033 3.300000000000001
vertex 110.25401644025085 19.557652850724033 3.300000000000001
endloop
endfacet
facet normal -0.0 -0.0 1.0
outer loop
vertex 91.05401644025086 38.547652850724035 3.300000000000001
vertex 110.25401644025085 19.557652850724033 3.300000000000001
vertex 107.25401644025085 38.547652850724035 3.300000000000001
endloop
endfacet
facet normal -0.0 -0.0 1.0
outer loop
vertex 107.25401644025085 38.547652850724035 3.300000000000001
vertex 110.25401644025085 19.557652850724033 3.300000000000001
vertex 107.25401644025085 55.277652850724024 3.300000000000001
endloop
endfacet
facet normal -0.0 -0.0 1.0
outer loop
vertex 194.1540164402509 19.557652850724033 3.300000000000001
vertex 126.25401644025087 36.45765285072403 3.300000000000001
vertex 126.25401644025087 19.557652850724033 3.300000000000001
endloop
endfacet
facet normal -0.0 -0.0 1.0
outer loop
vertex 126.25401644025087 36.45765285072403 3.300000000000001
vertex 194.1540164402509 19.557652850724033 3.300000000000001
vertex 129.05401644025085 38.547652850724035 3.300000000000001
endloop
endfacet
facet normal -0.0 -0.0 1.0
outer loop
vertex 126.25401644025087 36.45765285072403 3.300000000000001
vertex 129.05401644025085 38.547652850724035 3.300000000000001
vertex 126.25401644025087 57.35765285072404 3.300000000000001
endloop
endfacet
facet normal -0.0 -0.0 1.0
outer loop
vertex 126.25401644025087 57.35765285072404 3.300000000000001
vertex 129.05401644025085 38.547652850724035 3.300000000000001
vertex 126.25401644025087 74.29765285072403 3.300000000000001
endloop
endfacet
facet normal -0.0 -0.0 1.0
outer loop
vertex 129.05401644025085 38.547652850724035 3.300000000000001
vertex 194.1540164402509 19.557652850724033 3.300000000000001
vertex 144.90401644025084 38.547652850724035 3.300000000000001
endloop
endfacet
facet normal -0.0 -0.0 1.0
outer loop
vertex 144.90401644025084 38.547652850724035 3.300000000000001
vertex 194.1540164402509 19.557652850724033 3.300000000000001
vertex 144.90401644025084 55.277652850724024 3.300000000000001
endloop
endfacet
facet normal -0.0 -0.0 1.0
outer loop
vertex 63.65401644025084 93.26765285072405 3.300000000000001
vertex 110.25401644025085 74.29765285072403 3.2999999999999976
vertex 194.1540164402509 93.26765285072405 3.300000000000001
endloop
endfacet
facet normal -0.0 -0.0 1.0
outer loop
vertex 110.25401644025085 74.29765285072403 3.2999999999999976
vertex 63.65401644025084 93.26765285072405 3.300000000000001
vertex 91.05401644025086 55.277652850724024 3.300000000000001
endloop
endfacet
facet normal -0.0 -0.0 1.0
outer loop
vertex 91.05401644025086 55.277652850724024 3.300000000000001
vertex 63.65401644025084 93.26765285072405 3.300000000000001
vertex 91.05401644025086 38.547652850724035 3.300000000000001
endloop
endfacet
facet normal -0.0 -0.0 1.0
outer loop
vertex 110.25401644025085 74.29765285072403 3.2999999999999976
vertex 91.05401644025086 55.277652850724024 3.300000000000001
vertex 107.25401644025085 55.277652850724024 3.300000000000001
endloop
endfacet
facet normal -0.0 -0.0 1.0
outer loop
vertex 110.25401644025085 74.29765285072403 3.2999999999999976
vertex 107.25401644025085 55.277652850724024 3.300000000000001
vertex 110.25401644025085 19.557652850724033 3.300000000000001
endloop
endfacet
facet normal -0.0 -0.0 1.0
outer loop
vertex 110.25401644025085 74.29765285072403 3.2999999999999976
vertex 110.25401644025085 19.557652850724033 3.300000000000001
vertex 110.25401644025085 36.45765285072403 3.300000000000001
endloop
endfacet
facet normal -0.0 -0.0 1.0
outer loop
vertex 110.25401644025085 74.29765285072403 3.2999999999999976
vertex 110.25401644025085 36.45765285072403 3.300000000000001
vertex 110.25401644025085 57.35765285072404 3.300000000000001
endloop
endfacet
facet normal -0.0 -0.0 1.0
outer loop
vertex 194.1540164402509 93.26765285072405 3.300000000000001
vertex 110.25401644025085 74.29765285072403 3.2999999999999976
vertex 126.25401644025087 74.29765285072403 3.300000000000001
endloop
endfacet
facet normal -0.0 -0.0 1.0
outer loop
vertex 194.1540164402509 93.26765285072405 3.300000000000001
vertex 126.25401644025087 74.29765285072403 3.300000000000001
vertex 129.05401644025085 55.277652850724024 3.300000000000001
endloop
endfacet
facet normal -0.0 -0.0 1.0
outer loop
vertex 129.05401644025085 55.277652850724024 3.300000000000001
vertex 126.25401644025087 74.29765285072403 3.300000000000001
vertex 129.05401644025085 38.547652850724035 3.300000000000001
endloop
endfacet
facet normal -0.0 -0.0 1.0
outer loop
vertex 194.1540164402509 93.26765285072405 3.300000000000001
vertex 129.05401644025085 55.277652850724024 3.300000000000001
vertex 144.90401644025084 55.277652850724024 3.300000000000001
endloop
endfacet
facet normal -0.0 -0.0 1.0
outer loop
vertex 194.1540164402509 93.26765285072405 3.300000000000001
vertex 144.90401644025084 55.277652850724024 3.300000000000001
vertex 194.1540164402509 19.557652850724033 3.300000000000001
endloop
endfacet
facet normal -0.0 -0.0 1.0
outer loop
vertex 126.25401644025087 36.45765285072403 3.300000000000001
vertex 110.25401644025085 57.35765285072404 3.300000000000001
vertex 110.25401644025085 36.45765285072403 3.300000000000001
endloop
endfacet
facet normal -0.0 -0.0 1.0
outer loop
vertex 110.25401644025085 57.35765285072404 3.300000000000001
vertex 126.25401644025087 36.45765285072403 3.300000000000001
vertex 126.25401644025087 57.35765285072404 3.300000000000001
endloop
endfacet
facet normal -1.0 0.0 -0.0
outer loop
vertex 126.25401644025087 36.45765285072403 3.300000000000001
vertex 126.25401644025087 19.557652850724033 5.639932965095795e-15
vertex 126.25401644025087 19.557652850724033 3.300000000000001
endloop
endfacet
facet normal -1.0 0.0 -0.0
outer loop
vertex 126.25401644025087 19.557652850724033 5.639932965095795e-15
vertex 126.25401644025087 36.45765285072403 3.300000000000001
vertex 126.25401644025087 36.45765285072403 5.639932965095795e-15
endloop
endfacet
facet normal -0.0 -1.0 -0.0
outer loop
vertex 126.25401644025087 36.45765285072403 3.300000000000001
vertex 110.25401644025085 36.45765285072403 5.639932965095795e-15
vertex 126.25401644025087 36.45765285072403 5.639932965095795e-15
endloop
endfacet
facet normal -0.0 -1.0 -0.0
outer loop
vertex 110.25401644025085 36.45765285072403 5.639932965095795e-15
vertex 126.25401644025087 36.45765285072403 3.300000000000001
vertex 110.25401644025085 36.45765285072403 3.300000000000001
endloop
endfacet
facet normal 1.0 0.0 0.0
outer loop
vertex 110.25401644025085 36.45765285072403 5.639932965095795e-15
vertex 110.25401644025085 19.557652850724033 3.300000000000001
vertex 110.25401644025085 19.557652850724033 5.639932965095795e-15
endloop
endfacet
facet normal 1.0 0.0 0.0
outer loop
vertex 110.25401644025085 19.557652850724033 3.300000000000001
vertex 110.25401644025085 36.45765285072403 5.639932965095795e-15
vertex 110.25401644025085 36.45765285072403 3.300000000000001
endloop
endfacet
facet normal -0.9999999999999999 0.0 -0.0
outer loop
vertex 107.25401644025085 55.277652850724024 3.300000000000001
vertex 107.25401644025085 38.547652850724035 1.4099832412739487e-15
vertex 107.25401644025085 38.547652850724035 3.300000000000001
endloop
endfacet
facet normal -0.9999999999999999 0.0 -0.0
outer loop
vertex 107.25401644025085 38.547652850724035 1.4099832412739487e-15
vertex 107.25401644025085 55.277652850724024 3.300000000000001
vertex 107.25401644025085 55.277652850724024 1.4099832412739487e-15
endloop
endfacet
facet normal -0.0 -1.0 -0.0
outer loop
vertex 107.25401644025085 55.277652850724024 3.300000000000001
vertex 91.05401644025086 55.277652850724024 1.4099832412739487e-15
vertex 107.25401644025085 55.277652850724024 1.4099832412739487e-15
endloop
endfacet
facet normal -0.0 -1.0 -0.0
outer loop
vertex 91.05401644025086 55.277652850724024 1.4099832412739487e-15
vertex 107.25401644025085 55.277652850724024 3.300000000000001
vertex 91.05401644025086 55.277652850724024 3.300000000000001
endloop
endfacet
facet normal 0.9999999999999999 0.0 0.0
outer loop
vertex 91.05401644025086 55.277652850724024 1.4099832412739487e-15
vertex 91.05401644025086 38.547652850724035 3.300000000000001
vertex 91.05401644025086 38.547652850724035 1.4099832412739487e-15
endloop
endfacet
facet normal 0.9999999999999999 0.0 0.0
outer loop
vertex 91.05401644025086 38.547652850724035 3.300000000000001
vertex 91.05401644025086 55.277652850724024 1.4099832412739487e-15
vertex 91.05401644025086 55.277652850724024 3.300000000000001
endloop
endfacet
facet normal -0.0 1.0 -0.0
outer loop
vertex 91.05401644025086 38.547652850724035 3.300000000000001
vertex 107.25401644025085 38.547652850724035 1.4099832412739487e-15
vertex 91.05401644025086 38.547652850724035 1.4099832412739487e-15
endloop
endfacet
facet normal -0.0 1.0 -0.0
outer loop
vertex 107.25401644025085 38.547652850724035 1.4099832412739487e-15
vertex 91.05401644025086 38.547652850724035 3.300000000000001
vertex 107.25401644025085 38.547652850724035 3.300000000000001
endloop
endfacet
facet normal -0.0 1.0 -1.04042446965315e-16
outer loop
vertex 110.25401644025085 57.35765285072404 3.300000000000001
vertex 126.25401644025087 57.35765285072404 1.4099832412739487e-15
vertex 110.25401644025085 57.35765285072404 1.4099832412739487e-15
endloop
endfacet
facet normal -0.0 1.0 -1.04042446965315e-16
outer loop
vertex 126.25401644025087 57.35765285072404 1.4099832412739487e-15
vertex 110.25401644025085 57.35765285072404 3.300000000000001
vertex 126.25401644025087 57.35765285072404 3.300000000000001
endloop
endfacet
facet normal -1.0 0.0 -1.1015494072452715e-16
outer loop
vertex 126.25401644025087 74.29765285072403 3.300000000000001
vertex 126.25401644025087 57.35765285072404 1.4099832412739487e-15
vertex 126.25401644025087 57.35765285072404 3.300000000000001
endloop
endfacet
facet normal -1.0 0.0 -1.1015494072452715e-16
outer loop
vertex 126.25401644025087 57.35765285072404 1.4099832412739487e-15
vertex 126.25401644025087 74.29765285072403 3.300000000000001
vertex 126.25401644025087 74.29765285072403 1.4099832412739487e-15
endloop
endfacet
facet normal -2.2921579156598062e-32 -1.0 1.04042446965315e-16
outer loop
vertex 126.25401644025087 74.29765285072403 1.4099832412739487e-15
vertex 110.25401644025085 74.29765285072403 3.2999999999999976
vertex 110.25401644025085 74.29765285072403 -2.114974861910923e-15
endloop
endfacet
facet normal -2.2921579156598062e-32 -1.0 1.04042446965315e-16
outer loop
vertex 110.25401644025085 74.29765285072403 3.2999999999999976
vertex 126.25401644025087 74.29765285072403 1.4099832412739487e-15
vertex 126.25401644025087 74.29765285072403 3.300000000000001
endloop
endfacet
facet normal 1.0 2.2921579156598064e-32 1.1015494072452715e-16
outer loop
vertex 110.25401644025085 74.29765285072403 -2.114974861910923e-15
vertex 110.25401644025085 57.35765285072404 3.300000000000001
vertex 110.25401644025085 57.35765285072404 1.4099832412739487e-15
endloop
endfacet
facet normal 1.0 2.2921579156598064e-32 1.1015494072452715e-16
outer loop
vertex 110.25401644025085 57.35765285072404 3.300000000000001
vertex 110.25401644025085 74.29765285072403 -2.114974861910923e-15
vertex 110.25401644025085 74.29765285072403 3.2999999999999976
endloop
endfacet
facet normal -0.0 -1.0 -0.0
outer loop
vertex 144.90401644025084 55.277652850724024 3.300000000000001
vertex 129.05401644025085 55.277652850724024 1.4099832412739487e-15
vertex 144.90401644025084 55.277652850724024 1.4099832412739487e-15
endloop
endfacet
facet normal -0.0 -1.0 -0.0
outer loop
vertex 129.05401644025085 55.277652850724024 1.4099832412739487e-15
vertex 144.90401644025084 55.277652850724024 3.300000000000001
vertex 129.05401644025085 55.277652850724024 3.300000000000001
endloop
endfacet
facet normal 0.9999999999999999 0.0 0.0
outer loop
vertex 129.05401644025085 55.277652850724024 1.4099832412739487e-15
vertex 129.05401644025085 38.547652850724035 3.300000000000001
vertex 129.05401644025085 38.547652850724035 1.4099832412739487e-15
endloop
endfacet
facet normal 0.9999999999999999 0.0 0.0
outer loop
vertex 129.05401644025085 38.547652850724035 3.300000000000001
vertex 129.05401644025085 55.277652850724024 1.4099832412739487e-15
vertex 129.05401644025085 55.277652850724024 3.300000000000001
endloop
endfacet
facet normal -0.0 1.0 -0.0
outer loop
vertex 129.05401644025085 38.547652850724035 3.300000000000001
vertex 144.90401644025084 38.547652850724035 1.4099832412739487e-15
vertex 129.05401644025085 38.547652850724035 1.4099832412739487e-15
endloop
endfacet
facet normal -0.0 1.0 -0.0
outer loop
vertex 144.90401644025084 38.547652850724035 1.4099832412739487e-15
vertex 129.05401644025085 38.547652850724035 3.300000000000001
vertex 144.90401644025084 38.547652850724035 3.300000000000001
endloop
endfacet
facet normal -0.9999999999999999 0.0 -0.0
outer loop
vertex 144.90401644025084 55.277652850724024 3.300000000000001
vertex 144.90401644025084 38.547652850724035 1.4099832412739487e-15
vertex 144.90401644025084 38.547652850724035 3.300000000000001
endloop
endfacet
facet normal -0.9999999999999999 0.0 -0.0
outer loop
vertex 144.90401644025084 38.547652850724035 1.4099832412739487e-15
vertex 144.90401644025084 55.277652850724024 3.300000000000001
vertex 144.90401644025084 55.277652850724024 1.4099832412739487e-15
endloop
endfacet
endsolid numpad2468
