solid numpad1379~
facet normal -0.0 1.0 -0.0
outer loop
vertex 63.65401644025085 12.117652850724035 8.140000000000002
vertex 194.1540164402509 12.117652850724035 4.739999999999999
vertex 63.65401644025085 12.117652850724035 4.739999999999999
endloop
endfacet
facet normal -0.0 1.0 -0.0
outer loop
vertex 194.1540164402509 12.117652850724035 4.739999999999999
vertex 63.65401644025085 12.117652850724035 8.140000000000002
vertex 194.1540164402509 12.117652850724035 8.140000000000002
endloop
endfacet
facet normal -4.1027082590809615e-18 -0.4472135954999601 -0.894427190999915
outer loop
vertex 183.5540164402509 97.39765285072401 9.996269999999996
vertex 174.81658525673714 95.39765285072401 10.99627
vertex 172.81658525673714 97.39765285072401 9.996269999999996
endloop
endfacet
facet normal -0.7071067811865476 -0.7071067811865476 0.0
outer loop
vertex 172.81658525673714 97.39765285072401 14.996269999999996
vertex 174.81658525673714 95.39765285072401 10.99627
vertex 174.81658525673714 95.39765285072401 13.996269999999997
endloop
endfacet
facet normal -0.7071067811865476 -0.7071067811865476 0.0
outer loop
vertex 174.81658525673714 95.39765285072401 10.99627
vertex 172.81658525673714 97.39765285072401 14.996269999999996
vertex 172.81658525673714 97.39765285072401 9.996269999999996
endloop
endfacet
facet normal -4.102708259080966e-18 -0.44721359549995804 0.8944271909999161
outer loop
vertex 183.5540164402509 97.39765285072401 14.996269999999996
vertex 172.81658525673714 97.39765285072401 14.996269999999996
vertex 174.81658525673714 95.39765285072401 13.996269999999997
endloop
endfacet
facet normal -0.0 -0.0 1.0
outer loop
vertex 183.5540164402509 97.39765285072401 14.996269999999996
vertex 172.81658525673714 103.51765285072396 14.996269999999996
vertex 172.81658525673714 97.39765285072401 14.996269999999996
endloop
endfacet
facet normal -0.0 -0.0 1.0
outer loop
vertex 172.81658525673714 103.51765285072396 14.996269999999996
vertex 183.5540164402509 97.39765285072401 14.996269999999996
vertex 183.5540164402509 103.51765285072396 14.996269999999996
endloop
endfacet
facet normal -1.9027845499199212e-17 1.0 -1.464770376771892e-16
outer loop
vertex 60.65401644025089 103.51765285072396 9.940000000000003
vertex 194.1540164402509 103.51765285072396 1.0574874309554614e-15
vertex 60.65401644025087 103.51765285072396 -1.762479051592436e-15
endloop
endfacet
facet normal -1.9027845499199212e-17 1.0 -1.464770376771892e-16
outer loop
vertex 194.1540164402509 103.51765285072396 1.0574874309554614e-15
vertex 60.65401644025089 103.51765285072396 9.940000000000003
vertex 194.1540164402509 103.51765285072396 11.44
endloop
endfacet
facet normal -1.9027845499199212e-17 1.0 -1.464770376771892e-16
outer loop
vertex 194.1540164402509 103.51765285072396 11.44
vertex 60.65401644025089 103.51765285072396 9.940000000000003
vertex 62.154016440250885 103.51765285072396 11.439999999999998
endloop
endfacet
facet normal -1.9027845499199212e-17 1.0 -1.464770376771892e-16
outer loop
vertex 194.1540164402509 103.51765285072396 11.44
vertex 62.154016440250885 103.51765285072396 11.439999999999998
vertex 164.15401644025087 103.51765285072399 11.44
endloop
endfacet
facet normal -1.9027845499199212e-17 1.0 -1.464770376771892e-16
outer loop
vertex 194.1540164402509 103.51765285072396 11.44
vertex 164.15401644025087 103.51765285072399 11.44
vertex 172.81658525673714 103.51765285072396 14.996269999999996
endloop
endfacet
facet normal -1.9027845499199212e-17 1.0 -1.464770376771892e-16
outer loop
vertex 194.1540164402509 103.51765285072396 11.44
vertex 172.81658525673714 103.51765285072396 14.996269999999996
vertex 183.5540164402509 103.51765285072396 14.996269999999996
endloop
endfacet
facet normal 4.102708259080938e-18 0.4472135954999589 -0.8944271909999153
outer loop
vertex 183.5540164402509 15.237652850724043 9.996269999999996
vertex 172.81658525673714 15.237652850724043 9.996269999999996
vertex 174.81658525673714 17.237652850724047 10.99627
endloop
endfacet
facet normal -4.102708259080944e-18 0.4472135954999569 0.8944271909999164
outer loop
vertex 183.5540164402509 15.237652850724043 14.996269999999996
vertex 174.81658525673714 17.237652850724047 13.996269999999997
vertex 172.81658525673714 15.237652850724043 14.996269999999996
endloop
endfacet
facet normal -0.7071067811865486 0.7071067811865466 1.1637877420088264e-17
outer loop
vertex 174.81658525673714 17.237652850724047 13.996269999999997
vertex 172.81658525673714 15.237652850724043 9.996269999999996
vertex 172.81658525673714 15.237652850724043 14.996269999999996
endloop
endfacet
facet normal -0.7071067811865486 0.7071067811865466 1.1637877420088264e-17
outer loop
vertex 172.81658525673714 15.237652850724043 9.996269999999996
vertex 174.81658525673714 17.237652850724047 13.996269999999997
vertex 174.81658525673714 17.237652850724047 10.99627
endloop
endfacet
facet normal 0.2231293880856656 0.974788836709016 1.698720401915766e-17
outer loop
vertex 174.81658525673714 17.237652850724047 10.99627
vertex 183.5540164402509 15.237652850724043 14.996269999999996
vertex 183.5540164402509 15.237652850724043 9.996269999999996
endloop
endfacet
facet normal 0.2231293880856656 0.974788836709016 1.698720401915766e-17
outer loop
vertex 183.5540164402509 15.237652850724043 14.996269999999996
vertex 174.81658525673714 17.237652850724047 10.99627
vertex 174.81658525673714 17.237652850724047 13.996269999999997
endloop
endfacet
facet normal -0.379775318637865 -1.1961764958475042e-17 0.9250787573788019
outer loop
vertex 172.81658525673714 97.39765285072401 14.996269999999996
vertex 164.15401644025087 103.51765285072399 11.44
vertex 164.15401644025087 97.39765285072404 11.44
endloop
endfacet
facet normal -0.379775318637865 -1.1961764958475042e-17 0.9250787573788019
outer loop
vertex 164.15401644025087 103.51765285072399 11.44
vertex 172.81658525673714 97.39765285072401 14.996269999999996
vertex 172.81658525673714 103.51765285072396 14.996269999999996
endloop
endfacet
facet normal 7.507092066451012e-17 -1.0 -1.024029700497479e-15
outer loop
vertex 172.81658525673714 97.39765285072401 9.996269999999996
vertex 164.15401644025087 97.39765285072404 11.44
vertex 63.65401644025085 97.39765285072401 9.996269999999996
endloop
endfacet
facet normal 7.507092066451012e-17 -1.0 -1.024029700497479e-15
outer loop
vertex 164.15401644025087 97.39765285072404 11.44
vertex 172.81658525673714 97.39765285072401 9.996269999999996
vertex 172.81658525673714 97.39765285072401 14.996269999999996
endloop
endfacet
facet normal 7.507092066451012e-17 -1.0 -1.024029700497479e-15
outer loop
vertex 63.65401644025085 97.39765285072401 9.996269999999996
vertex 164.15401644025087 97.39765285072404 11.44
vertex 63.65401644025085 97.39765285072401 11.439999999999998
endloop
endfacet
facet normal 0.31807348107639144 -0.0 0.948066063434372
outer loop
vertex 194.1540164402509 97.39765285072401 11.44
vertex 183.5540164402509 103.51765285072396 14.996269999999996
vertex 183.5540164402509 97.39765285072401 14.996269999999996
endloop
endfacet
facet normal 0.31807348107639144 -0.0 0.948066063434372
outer loop
vertex 183.5540164402509 103.51765285072396 14.996269999999996
vertex 194.1540164402509 97.39765285072401 11.44
vertex 194.1540164402509 103.51765285072396 11.44
endloop
endfacet
facet normal 2.1123344438561026e-17 2.835413377237758e-33 -1.0
outer loop
vertex 60.65401644025087 103.51765285072396 -1.762479051592436e-15
vertex 91.54401644025084 73.80015285072405 0.0
vertex 60.65401644025089 9.117652850724033 -1.762479051592436e-15
endloop
endfacet
facet normal 2.1123344438561026e-17 2.835413377237758e-33 -1.0
outer loop
vertex 91.54401644025084 73.80015285072405 0.0
vertex 60.65401644025087 103.51765285072396 -1.762479051592436e-15
vertex 194.1540164402509 103.51765285072396 1.0574874309554614e-15
endloop
endfacet
facet normal 2.1123344438561026e-17 2.835413377237758e-33 -1.0
outer loop
vertex 91.54401644025084 73.80015285072405 0.0
vertex 194.1540164402509 103.51765285072396 1.0574874309554614e-15
vertex 107.49401644025085 73.80015285072405 -2.114974861910923e-15
endloop
endfacet
facet normal 2.1123344438561026e-17 2.835413377237758e-33 -1.0
outer loop
vertex 107.49401644025085 73.80015285072405 -2.114974861910923e-15
vertex 194.1540164402509 103.51765285072396 1.0574874309554614e-15
vertex 129.3740164402508 73.80015285072405 1.5862311464331924e-14
endloop
endfacet
facet normal 2.1123344438561026e-17 2.835413377237758e-33 -1.0
outer loop
vertex 107.49401644025085 73.80015285072405 -2.114974861910923e-15
vertex 129.3740164402508 73.80015285072405 1.5862311464331924e-14
vertex 107.49401644025085 57.45265285072404 -2.114974861910923e-15
endloop
endfacet
facet normal 2.1123344438561026e-17 2.835413377237758e-33 -1.0
outer loop
vertex 107.49401644025085 57.45265285072404 -2.114974861910923e-15
vertex 129.3740164402508 73.80015285072405 1.5862311464331924e-14
vertex 107.49401644025085 36.945152850724035 2.8199664825478975e-15
endloop
endfacet
facet normal 2.1123344438561026e-17 2.835413377237758e-33 -1.0
outer loop
vertex 107.49401644025085 36.945152850724035 2.8199664825478975e-15
vertex 129.3740164402508 73.80015285072405 1.5862311464331924e-14
vertex 107.49401644025085 19.557652850724033 2.8199664825478975e-15
endloop
endfacet
facet normal 2.1123344438561026e-17 2.835413377237758e-33 -1.0
outer loop
vertex 129.3740164402508 73.80015285072405 1.5862311464331924e-14
vertex 194.1540164402509 103.51765285072396 1.0574874309554614e-15
vertex 145.32401644025086 73.80015285072405 1.5862311464331924e-14
endloop
endfacet
facet normal 2.1123344438561026e-17 2.835413377237758e-33 -1.0
outer loop
vertex 145.32401644025086 73.80015285072405 1.5862311464331924e-14
vertex 194.1540164402509 103.51765285072396 1.0574874309554614e-15
vertex 145.32401644025086 57.45265285072404 -2.114974861910923e-15
endloop
endfacet
facet normal 2.1123344438561026e-17 2.835413377237758e-33 -1.0
outer loop
vertex 145.32401644025086 57.45265285072404 -2.114974861910923e-15
vertex 194.1540164402509 103.51765285072396 1.0574874309554614e-15
vertex 145.32401644025086 36.945152850724035 2.8199664825478975e-15
endloop
endfacet
facet normal 2.1123344438561026e-17 2.835413377237758e-33 -1.0
outer loop
vertex 145.32401644025086 36.945152850724035 2.8199664825478975e-15
vertex 194.1540164402509 103.51765285072396 1.0574874309554614e-15
vertex 145.32401644025086 19.557652850724033 2.8199664825478975e-15
endloop
endfacet
facet normal 2.1123344438561026e-17 2.835413377237758e-33 -1.0
outer loop
vertex 60.65401644025089 9.117652850724033 -1.762479051592436e-15
vertex 91.54401644025084 19.557652850724033 5.287437154777308e-15
vertex 194.1540164402509 9.117652850724033 1.0574874309554614e-15
endloop
endfacet
facet normal 2.1123344438561026e-17 2.835413377237758e-33 -1.0
outer loop
vertex 91.54401644025084 19.557652850724033 5.287437154777308e-15
vertex 60.65401644025089 9.117652850724033 -1.762479051592436e-15
vertex 91.54401644025084 73.80015285072405 0.0
endloop
endfacet
facet normal 2.1123344438561026e-17 2.835413377237758e-33 -1.0
outer loop
vertex 91.54401644025084 19.557652850724033 5.287437154777308e-15
vertex 91.54401644025084 73.80015285072405 0.0
vertex 91.54401644025084 57.45265285072404 -2.114974861910923e-15
endloop
endfacet
facet normal 2.1123344438561026e-17 2.835413377237758e-33 -1.0
outer loop
vertex 91.54401644025084 19.557652850724033 5.287437154777308e-15
vertex 91.54401644025084 57.45265285072404 -2.114974861910923e-15
vertex 91.54401644025084 36.945152850724035 2.8199664825478975e-15
endloop
endfacet
facet normal 2.1123344438561026e-17 2.835413377237758e-33 -1.0
outer loop
vertex 194.1540164402509 9.117652850724033 1.0574874309554614e-15
vertex 91.54401644025084 19.557652850724033 5.287437154777308e-15
vertex 107.49401644025085 19.557652850724033 2.8199664825478975e-15
endloop
endfacet
facet normal 2.1123344438561026e-17 2.835413377237758e-33 -1.0
outer loop
vertex 194.1540164402509 9.117652850724033 1.0574874309554614e-15
vertex 107.49401644025085 19.557652850724033 2.8199664825478975e-15
vertex 129.3740164402508 19.557652850724033 1.973976537783528e-14
endloop
endfacet
facet normal 2.1123344438561026e-17 2.835413377237758e-33 -1.0
outer loop
vertex 129.3740164402508 19.557652850724033 1.973976537783528e-14
vertex 107.49401644025085 19.557652850724033 2.8199664825478975e-15
vertex 129.3740164402508 73.80015285072405 1.5862311464331924e-14
endloop
endfacet
facet normal 2.1123344438561026e-17 2.835413377237758e-33 -1.0
outer loop
vertex 129.3740164402508 19.557652850724033 1.973976537783528e-14
vertex 129.3740164402508 73.80015285072405 1.5862311464331924e-14
vertex 129.3740164402508 57.45265285072404 1.5862311464331924e-14
endloop
endfacet
facet normal 2.1123344438561026e-17 2.835413377237758e-33 -1.0
outer loop
vertex 129.3740164402508 19.557652850724033 1.973976537783528e-14
vertex 129.3740164402508 57.45265285072404 1.5862311464331924e-14
vertex 129.3740164402508 36.945152850724035 2.8199664825478975e-15
endloop
endfacet
facet normal 2.1123344438561026e-17 2.835413377237758e-33 -1.0
outer loop
vertex 194.1540164402509 9.117652850724033 1.0574874309554614e-15
vertex 129.3740164402508 19.557652850724033 1.973976537783528e-14
vertex 145.32401644025086 19.557652850724033 2.8199664825478975e-15
endloop
endfacet
facet normal 2.1123344438561026e-17 2.835413377237758e-33 -1.0
outer loop
vertex 194.1540164402509 9.117652850724033 1.0574874309554614e-15
vertex 145.32401644025086 19.557652850724033 2.8199664825478975e-15
vertex 194.1540164402509 103.51765285072396 1.0574874309554614e-15
endloop
endfacet
facet normal 2.1123344438561026e-17 2.835413377237758e-33 -1.0
outer loop
vertex 145.32401644025086 57.45265285072404 -2.114974861910923e-15
vertex 129.3740164402508 36.945152850724035 2.8199664825478975e-15
vertex 129.3740164402508 57.45265285072404 1.5862311464331924e-14
endloop
endfacet
facet normal 2.1123344438561026e-17 2.835413377237758e-33 -1.0
outer loop
vertex 129.3740164402508 36.945152850724035 2.8199664825478975e-15
vertex 145.32401644025086 57.45265285072404 -2.114974861910923e-15
vertex 145.32401644025086 36.945152850724035 2.8199664825478975e-15
endloop
endfacet
facet normal 2.1123344438561026e-17 2.835413377237758e-33 -1.0
outer loop
vertex 107.49401644025085 57.45265285072404 -2.114974861910923e-15
vertex 91.54401644025084 36.945152850724035 2.8199664825478975e-15
vertex 91.54401644025084 57.45265285072404 -2.114974861910923e-15
endloop
endfacet
facet normal 2.1123344438561026e-17 2.835413377237758e-33 -1.0
outer loop
vertex 91.54401644025084 36.945152850724035 2.8199664825478975e-15
vertex 107.49401644025085 57.45265285072404 -2.114974861910923e-15
vertex 107.49401644025085 36.945152850724035 2.8199664825478975e-15
endloop
endfacet
facet normal -2.784846474233947e-17 -3.032913614724756e-33 1.0
outer loop
vertex 62.154016440250885 9.117652850724033 11.439999999999998
vertex 63.65401644025085 15.237652850724032 11.439999999999998
vertex 62.154016440250885 103.51765285072396 11.439999999999998
endloop
endfacet
facet normal -2.784846474233947e-17 -3.032913614724756e-33 1.0
outer loop
vertex 63.65401644025085 15.237652850724032 11.439999999999998
vertex 62.154016440250885 9.117652850724033 11.439999999999998
vertex 164.1540164402509 9.117652850724054 11.44
endloop
endfacet
facet normal -2.784846474233947e-17 -3.032913614724756e-33 1.0
outer loop
vertex 63.65401644025085 15.237652850724032 11.439999999999998
vertex 164.1540164402509 9.117652850724054 11.44
vertex 164.1540164402509 15.237652850724043 11.44
endloop
endfacet
facet normal -2.784846474233947e-17 -3.032913614724756e-33 1.0
outer loop
vertex 62.154016440250885 103.51765285072396 11.439999999999998
vertex 63.65401644025085 97.39765285072401 11.439999999999998
vertex 164.15401644025087 103.51765285072399 11.44
endloop
endfacet
facet normal -2.784846474233947e-17 -3.032913614724756e-33 1.0
outer loop
vertex 63.65401644025085 97.39765285072401 11.439999999999998
vertex 62.154016440250885 103.51765285072396 11.439999999999998
vertex 63.65401644025085 15.237652850724032 11.439999999999998
endloop
endfacet
facet normal -2.784846474233947e-17 -3.032913614724756e-33 1.0
outer loop
vertex 164.15401644025087 103.51765285072399 11.44
vertex 63.65401644025085 97.39765285072401 11.439999999999998
vertex 164.15401644025087 97.39765285072404 11.44
endloop
endfacet
facet normal -0.7071067811865469 -3.951665751072858e-33 0.7071067811865481
outer loop
vertex 62.154016440250885 9.117652850724033 11.439999999999998
vertex 60.65401644025089 103.51765285072396 9.940000000000003
vertex 60.65401644025089 9.117652850724033 9.940000000000003
endloop
endfacet
facet normal -0.7071067811865469 -3.951665751072858e-33 0.7071067811865481
outer loop
vertex 60.65401644025089 103.51765285072396 9.940000000000003
vertex 62.154016440250885 9.117652850724033 11.439999999999998
vertex 62.154016440250885 103.51765285072396 11.439999999999998
endloop
endfacet
facet normal -1.0 -1.2207647110596968e-16 1.0310663555933809e-15
outer loop
vertex 60.65401644025089 103.51765285072396 9.940000000000003
vertex 60.65401644025089 9.117652850724033 -1.762479051592436e-15
vertex 60.65401644025089 9.117652850724033 9.940000000000003
endloop
endfacet
facet normal -1.0 -1.2207647110596968e-16 1.0310663555933809e-15
outer loop
vertex 60.65401644025089 9.117652850724033 -1.762479051592436e-15
vertex 60.65401644025089 103.51765285072396 9.940000000000003
vertex 60.65401644025087 103.51765285072396 -1.762479051592436e-15
endloop
endfacet
facet normal -0.0 1.0 7.546935837985657e-17
outer loop
vertex 91.54401644025084 57.45265285072404 2.2999999999999936
vertex 107.49401644025085 57.45265285072404 -2.114974861910923e-15
vertex 91.54401644025084 57.45265285072404 -2.114974861910923e-15
endloop
endfacet
facet normal -0.0 1.0 7.546935837985657e-17
outer loop
vertex 107.49401644025085 57.45265285072404 -2.114974861910923e-15
vertex 91.54401644025084 57.45265285072404 2.2999999999999936
vertex 107.49401644025085 57.45265285072404 2.2999999999999936
endloop
endfacet
facet normal -1.0 -0.0 7.735017781283416e-17
outer loop
vertex 107.49401644025085 73.80015285072405 2.2999999999999936
vertex 107.49401644025085 57.45265285072404 -2.114974861910923e-15
vertex 107.49401644025085 57.45265285072404 2.2999999999999936
endloop
endfacet
facet normal -1.0 -0.0 7.735017781283416e-17
outer loop
vertex 107.49401644025085 57.45265285072404 -2.114974861910923e-15
vertex 107.49401644025085 73.80015285072405 2.2999999999999936
vertex 107.49401644025085 73.80015285072405 -2.114974861910923e-15
endloop
endfacet
facet normal -1.1675136580204822e-32 -1.0 -7.546935837985657e-17
outer loop
vertex 107.49401644025085 73.80015285072405 2.2999999999999936
vertex 91.54401644025084 73.80015285072405 0.0
vertex 107.49401644025085 73.80015285072405 -2.114974861910923e-15
endloop
endfacet
facet normal -1.1675136580204822e-32 -1.0 -7.546935837985657e-17
outer loop
vertex 91.54401644025084 73.80015285072405 0.0
vertex 107.49401644025085 73.80015285072405 2.2999999999999936
vertex 91.54401644025084 73.80015285072405 2.2999999999999963
endloop
endfacet
facet normal 1.0 1.1675136580204821e-32 -7.735017781283416e-17
outer loop
vertex 91.54401644025084 73.80015285072405 0.0
vertex 91.54401644025084 57.45265285072404 2.2999999999999936
vertex 91.54401644025084 57.45265285072404 -2.114974861910923e-15
endloop
endfacet
facet normal 1.0 1.1675136580204821e-32 -7.735017781283416e-17
outer loop
vertex 91.54401644025084 57.45265285072404 2.2999999999999936
vertex 91.54401644025084 73.80015285072405 0.0
vertex 91.54401644025084 73.80015285072405 2.2999999999999963
endloop
endfacet
facet normal -1.0 0.0 0.0
outer loop
vertex 107.49401644025085 36.945152850724035 2.2999999999999985
vertex 107.49401644025085 19.557652850724033 2.8199664825478975e-15
vertex 107.49401644025085 19.557652850724033 2.2999999999999985
endloop
endfacet
facet normal -1.0 0.0 0.0
outer loop
vertex 107.49401644025085 19.557652850724033 2.8199664825478975e-15
vertex 107.49401644025085 36.945152850724035 2.2999999999999985
vertex 107.49401644025085 36.945152850724035 2.8199664825478975e-15
endloop
endfacet
facet normal -0.0 -1.0 7.095530329919225e-17
outer loop
vertex 107.49401644025085 36.945152850724035 2.2999999999999985
vertex 91.54401644025084 36.945152850724035 2.8199664825478975e-15
vertex 107.49401644025085 36.945152850724035 2.8199664825478975e-15
endloop
endfacet
facet normal -0.0 -1.0 7.095530329919225e-17
outer loop
vertex 91.54401644025084 36.945152850724035 2.8199664825478975e-15
vertex 107.49401644025085 36.945152850724035 2.2999999999999985
vertex 91.54401644025084 36.945152850724035 2.2999999999999985
endloop
endfacet
facet normal 1.0 -0.0 -0.0
outer loop
vertex 91.54401644025084 36.945152850724035 2.8199664825478975e-15
vertex 91.54401644025084 19.557652850724033 2.300000000000001
vertex 91.54401644025084 19.557652850724033 5.287437154777308e-15
endloop
endfacet
facet normal 1.0 -0.0 -0.0
outer loop
vertex 91.54401644025084 19.557652850724033 2.300000000000001
vertex 91.54401644025084 36.945152850724035 2.8199664825478975e-15
vertex 91.54401644025084 36.945152850724035 2.2999999999999985
endloop
endfacet
facet normal -1.0 -0.0 5.304012192880048e-16
outer loop
vertex 145.32401644025086 36.945152850724035 2.2999999999999985
vertex 145.32401644025086 19.557652850724033 2.8199664825478975e-15
vertex 145.32401644025086 19.557652850724033 2.2999999999999985
endloop
endfacet
facet normal -1.0 -0.0 5.304012192880048e-16
outer loop
vertex 145.32401644025086 19.557652850724033 2.8199664825478975e-15
vertex 145.32401644025086 36.945152850724035 2.2999999999999985
vertex 145.32401644025086 36.945152850724035 2.8199664825478975e-15
endloop
endfacet
facet normal -0.0 -1.0 4.865506511944612e-16
outer loop
vertex 145.32401644025086 36.945152850724035 2.2999999999999985
vertex 129.3740164402508 36.945152850724035 2.8199664825478975e-15
vertex 145.32401644025086 36.945152850724035 2.8199664825478975e-15
endloop
endfacet
facet normal -0.0 -1.0 4.865506511944612e-16
outer loop
vertex 129.3740164402508 36.945152850724035 2.8199664825478975e-15
vertex 145.32401644025086 36.945152850724035 2.2999999999999985
vertex 129.3740164402508 36.945152850724035 2.2999999999999985
endloop
endfacet
facet normal 1.0 -0.0 -0.0
outer loop
vertex 129.3740164402508 36.945152850724035 2.8199664825478975e-15
vertex 129.3740164402508 19.557652850724033 2.3000000000000154
vertex 129.3740164402508 19.557652850724033 1.973976537783528e-14
endloop
endfacet
facet normal 1.0 -0.0 -0.0
outer loop
vertex 129.3740164402508 19.557652850724033 2.3000000000000154
vertex 129.3740164402508 36.945152850724035 2.8199664825478975e-15
vertex 129.3740164402508 36.945152850724035 2.2999999999999985
endloop
endfacet
facet normal 6.1973531112474895e-31 1.0 5.498481824818121e-16
outer loop
vertex 129.3740164402508 57.45265285072404 1.5862311464331924e-14
vertex 145.32401644025086 57.45265285072404 2.2999999999999936
vertex 145.32401644025086 57.45265285072404 -2.114974861910923e-15
endloop
endfacet
facet normal 6.1973531112474895e-31 1.0 5.498481824818121e-16
outer loop
vertex 145.32401644025086 57.45265285072404 2.2999999999999936
vertex 129.3740164402508 57.45265285072404 1.5862311464331924e-14
vertex 129.3740164402508 57.45265285072404 2.300000000000012
endloop
endfacet
facet normal -1.0 -6.197353111247488e-31 5.635512954935051e-16
outer loop
vertex 145.32401644025086 73.80015285072405 2.300000000000012
vertex 145.32401644025086 57.45265285072404 -2.114974861910923e-15
vertex 145.32401644025086 57.45265285072404 2.2999999999999936
endloop
endfacet
facet normal -1.0 -6.197353111247488e-31 5.635512954935051e-16
outer loop
vertex 145.32401644025086 57.45265285072404 -2.114974861910923e-15
vertex 145.32401644025086 73.80015285072405 2.300000000000012
vertex 145.32401644025086 73.80015285072405 1.5862311464331924e-14
endloop
endfacet
facet normal -0.0 -1.0 -5.498481824818121e-16
outer loop
vertex 145.32401644025086 73.80015285072405 2.300000000000012
vertex 129.3740164402508 73.80015285072405 1.5862311464331924e-14
vertex 145.32401644025086 73.80015285072405 1.5862311464331924e-14
endloop
endfacet
facet normal -0.0 -1.0 -5.498481824818121e-16
outer loop
vertex 129.3740164402508 73.80015285072405 1.5862311464331924e-14
vertex 145.32401644025086 73.80015285072405 2.300000000000012
vertex 129.3740164402508 73.80015285072405 2.300000000000012
endloop
endfacet
facet normal 1.0 -0.0 -5.635512954935051e-16
outer loop
vertex 129.3740164402508 73.80015285072405 1.5862311464331924e-14
vertex 129.3740164402508 57.45265285072404 2.300000000000012
vertex 129.3740164402508 57.45265285072404 1.5862311464331924e-14
endloop
endfacet
facet normal 1.0 -0.0 -5.635512954935051e-16
outer loop
vertex 129.3740164402508 57.45265285072404 2.300000000000012
vertex 129.3740164402508 73.80015285072405 1.5862311464331924e-14
vertex 129.3740164402508 73.80015285072405 2.300000000000012
endloop
endfacet
facet normal -8.038719009457228e-16 -7.799319061432563e-16 -1.0
outer loop
vertex 105.99401644025085 72.30015285072405 6.8736683012105e-15
vertex 93.04401644025084 58.952652850724036 2.7693950535704736e-14
vertex 93.04401644025084 72.30015285072405 6.8736683012105e-15
endloop
endfacet
facet normal -8.038719009457228e-16 -7.799319061432563e-16 -1.0
outer loop
vertex 93.04401644025084 58.952652850724036 2.7693950535704736e-14
vertex 105.99401644025085 72.30015285072405 6.8736683012105e-15
vertex 105.99401644025085 58.952652850724036 6.8736683012105e-15
endloop
endfacet
facet normal 4.750113489484692e-17 4.2755148350183725e-17 -1.0
outer loop
vertex 105.99401644025085 35.445152850724035 3.524958103184872e-16
vertex 93.04401644025084 21.057652850724036 -8.777835834580493e-16
vertex 93.04401644025084 35.445152850724035 3.524958103184872e-16
endloop
endfacet
facet normal 4.750113489484692e-17 4.2755148350183725e-17 -1.0
outer loop
vertex 93.04401644025084 21.057652850724036 -8.777835834580493e-16
vertex 105.99401644025085 35.445152850724035 3.524958103184872e-16
vertex 105.99401644025085 21.057652850724036 3.524958103184871e-16
endloop
endfacet
facet normal -5.44395073850945e-17 -4.900028640395999e-17 1.0
outer loop
vertex 105.99401644025085 21.057652850724036 4.740000000000001
vertex 93.04401644025084 35.445152850724035 4.740000000000001
vertex 93.04401644025084 21.057652850724036 4.739999999999999
endloop
endfacet
facet normal -5.44395073850945e-17 -4.900028640395999e-17 1.0
outer loop
vertex 93.04401644025084 35.445152850724035 4.740000000000001
vertex 105.99401644025085 21.057652850724036 4.740000000000001
vertex 105.99401644025085 35.445152850724035 4.740000000000001
endloop
endfacet
facet normal -0.0 1.0 -0.0
outer loop
vertex 93.04401644025084 35.445152850724035 4.740000000000001
vertex 105.99401644025085 35.445152850724035 3.524958103184872e-16
vertex 93.04401644025084 35.445152850724035 3.524958103184872e-16
endloop
endfacet
facet normal -0.0 1.0 -0.0
outer loop
vertex 105.99401644025085 35.445152850724035 3.524958103184872e-16
vertex 93.04401644025084 35.445152850724035 4.740000000000001
vertex 105.99401644025085 35.445152850724035 4.740000000000001
endloop
endfacet
facet normal 1.0 -0.0 -0.0
outer loop
vertex 105.99401644025085 35.445152850724035 3.524958103184872e-16
vertex 105.99401644025085 21.057652850724036 4.740000000000001
vertex 105.99401644025085 21.057652850724036 3.524958103184871e-16
endloop
endfacet
facet normal 1.0 -0.0 -0.0
outer loop
vertex 105.99401644025085 21.057652850724036 4.740000000000001
vertex 105.99401644025085 35.445152850724035 3.524958103184872e-16
vertex 105.99401644025085 35.445152850724035 4.740000000000001
endloop
endfacet
facet normal 0.0 -1.0 0.0
outer loop
vertex 105.99401644025085 21.057652850724036 3.524958103184871e-16
vertex 93.04401644025084 21.057652850724036 4.739999999999999
vertex 93.04401644025084 21.057652850724036 -8.777835834580493e-16
endloop
endfacet
facet normal 0.0 -1.0 0.0
outer loop
vertex 93.04401644025084 21.057652850724036 4.739999999999999
vertex 105.99401644025085 21.057652850724036 3.524958103184871e-16
vertex 105.99401644025085 21.057652850724036 4.740000000000001
endloop
endfacet
facet normal -1.0 0.0 0.0
outer loop
vertex 93.04401644025084 35.445152850724035 4.740000000000001
vertex 93.04401644025084 21.057652850724036 -8.777835834580493e-16
vertex 93.04401644025084 21.057652850724036 4.739999999999999
endloop
endfacet
facet normal -1.0 0.0 0.0
outer loop
vertex 93.04401644025084 21.057652850724036 -8.777835834580493e-16
vertex 93.04401644025084 35.445152850724035 4.740000000000001
vertex 93.04401644025084 35.445152850724035 3.524958103184872e-16
endloop
endfacet
facet normal 7.893728570838704e-16 7.658646562454485e-16 1.0
outer loop
vertex 105.99401644025085 58.952652850724036 4.740000000000007
vertex 93.04401644025084 72.30015285072405 4.740000000000007
vertex 93.04401644025084 58.952652850724036 4.740000000000028
endloop
endfacet
facet normal 7.893728570838704e-16 7.658646562454485e-16 1.0
outer loop
vertex 93.04401644025084 72.30015285072405 4.740000000000007
vertex 105.99401644025085 58.952652850724036 4.740000000000007
vertex 105.99401644025085 72.30015285072405 4.740000000000007
endloop
endfacet
facet normal -0.0 1.0 -0.0
outer loop
vertex 93.04401644025084 72.30015285072405 4.740000000000007
vertex 105.99401644025085 72.30015285072405 6.8736683012105e-15
vertex 93.04401644025084 72.30015285072405 6.8736683012105e-15
endloop
endfacet
facet normal -0.0 1.0 -0.0
outer loop
vertex 105.99401644025085 72.30015285072405 6.8736683012105e-15
vertex 93.04401644025084 72.30015285072405 4.740000000000007
vertex 105.99401644025085 72.30015285072405 4.740000000000007
endloop
endfacet
facet normal 1.0 -0.0 -0.0
outer loop
vertex 105.99401644025085 72.30015285072405 6.8736683012105e-15
vertex 105.99401644025085 58.952652850724036 4.740000000000007
vertex 105.99401644025085 58.952652850724036 6.8736683012105e-15
endloop
endfacet
facet normal 1.0 -0.0 -0.0
outer loop
vertex 105.99401644025085 58.952652850724036 4.740000000000007
vertex 105.99401644025085 72.30015285072405 6.8736683012105e-15
vertex 105.99401644025085 72.30015285072405 4.740000000000007
endloop
endfacet
facet normal 0.0 -1.0 0.0
outer loop
vertex 105.99401644025085 58.952652850724036 4.740000000000007
vertex 93.04401644025084 58.952652850724036 2.7693950535704736e-14
vertex 105.99401644025085 58.952652850724036 6.8736683012105e-15
endloop
endfacet
facet normal 0.0 -1.0 0.0
outer loop
vertex 93.04401644025084 58.952652850724036 2.7693950535704736e-14
vertex 105.99401644025085 58.952652850724036 4.740000000000007
vertex 93.04401644025084 58.952652850724036 4.740000000000028
endloop
endfacet
facet normal -1.0 0.0 0.0
outer loop
vertex 93.04401644025084 72.30015285072405 4.740000000000007
vertex 93.04401644025084 58.952652850724036 2.7693950535704736e-14
vertex 93.04401644025084 58.952652850724036 4.740000000000028
endloop
endfacet
facet normal -1.0 0.0 0.0
outer loop
vertex 93.04401644025084 58.952652850724036 2.7693950535704736e-14
vertex 93.04401644025084 72.30015285072405 4.740000000000007
vertex 93.04401644025084 72.30015285072405 6.8736683012105e-15
endloop
endfacet
facet normal 1.902784549919923e-17 -1.0 1.4647703767718914e-16
outer loop
vertex 194.1540164402509 9.117652850724033 1.0574874309554614e-15
vertex 60.65401644025089 9.117652850724033 9.940000000000003
vertex 60.65401644025089 9.117652850724033 -1.762479051592436e-15
endloop
endfacet
facet normal 1.902784549919923e-17 -1.0 1.4647703767718914e-16
outer loop
vertex 60.65401644025089 9.117652850724033 9.940000000000003
vertex 194.1540164402509 9.117652850724033 1.0574874309554614e-15
vertex 194.1540164402509 9.117652850724033 11.44
endloop
endfacet
facet normal 1.902784549919923e-17 -1.0 1.4647703767718914e-16
outer loop
vertex 60.65401644025089 9.117652850724033 9.940000000000003
vertex 194.1540164402509 9.117652850724033 11.44
vertex 62.154016440250885 9.117652850724033 11.439999999999998
endloop
endfacet
facet normal 1.902784549919923e-17 -1.0 1.4647703767718914e-16
outer loop
vertex 62.154016440250885 9.117652850724033 11.439999999999998
vertex 194.1540164402509 9.117652850724033 11.44
vertex 164.1540164402509 9.117652850724054 11.44
endloop
endfacet
facet normal 1.902784549919923e-17 -1.0 1.4647703767718914e-16
outer loop
vertex 164.1540164402509 9.117652850724054 11.44
vertex 194.1540164402509 9.117652850724033 11.44
vertex 183.5540164402509 9.117652850724033 14.996269999999996
endloop
endfacet
facet normal 1.902784549919923e-17 -1.0 1.4647703767718914e-16
outer loop
vertex 164.1540164402509 9.117652850724054 11.44
vertex 183.5540164402509 9.117652850724033 14.996269999999996
vertex 172.81658525673714 9.117652850724033 14.996269999999996
endloop
endfacet
facet normal -0.0 -0.0 1.0
outer loop
vertex 183.5540164402509 9.117652850724033 14.996269999999996
vertex 172.81658525673714 15.237652850724043 14.996269999999996
vertex 172.81658525673714 9.117652850724033 14.996269999999996
endloop
endfacet
facet normal -0.0 -0.0 1.0
outer loop
vertex 172.81658525673714 15.237652850724043 14.996269999999996
vertex 183.5540164402509 9.117652850724033 14.996269999999996
vertex 183.5540164402509 15.237652850724043 14.996269999999996
endloop
endfacet
facet normal -0.3797753186378659 -8.453953747544797e-18 0.9250787573788015
outer loop
vertex 172.81658525673714 9.117652850724033 14.996269999999996
vertex 164.1540164402509 15.237652850724043 11.44
vertex 164.1540164402509 9.117652850724054 11.44
endloop
endfacet
facet normal -0.3797753186378659 -8.453953747544797e-18 0.9250787573788015
outer loop
vertex 164.1540164402509 15.237652850724043 11.44
vertex 172.81658525673714 9.117652850724033 14.996269999999996
vertex 172.81658525673714 15.237652850724043 14.996269999999996
endloop
endfacet
facet normal -0.0 1.0 -0.0
outer loop
vertex 183.5540164402509 15.237652850724043 14.996269999999996
vertex 194.1540164402509 15.237652850724043 9.996269999999996
vertex 183.5540164402509 15.237652850724043 9.996269999999996
endloop
endfacet
facet normal -0.0 1.0 -0.0
outer loop
vertex 194.1540164402509 15.237652850724043 9.996269999999996
vertex 183.5540164402509 15.237652850724043 14.996269999999996
vertex 194.1540164402509 15.237652850724043 11.44
endloop
endfacet
facet normal 0.31807348107639144 3.7077513894579427e-31 0.948066063434372
outer loop
vertex 194.1540164402509 9.117652850724033 11.44
vertex 183.5540164402509 15.237652850724043 14.996269999999996
vertex 183.5540164402509 9.117652850724033 14.996269999999996
endloop
endfacet
facet normal 0.31807348107639144 3.7077513894579427e-31 0.948066063434372
outer loop
vertex 183.5540164402509 15.237652850724043 14.996269999999996
vertex 194.1540164402509 9.117652850724033 11.44
vertex 194.1540164402509 15.237652850724043 11.44
endloop
endfacet
facet normal -0.0 -0.0 1.0
outer loop
vertex 194.1540164402509 96.71138285072405 4.739999999999999
vertex 63.65401644025085 100.51765285072402 4.739999999999999
vertex 63.65401644025084 96.71138285072405 4.739999999999999
endloop
endfacet
facet normal -0.0 -0.0 1.0
outer loop
vertex 63.65401644025085 100.51765285072402 4.739999999999999
vertex 194.1540164402509 96.71138285072405 4.739999999999999
vertex 194.1540164402509 100.51765285072402 4.739999999999999
endloop
endfacet
facet normal 4.289717775851779e-19 -0.5781263978782122 0.8159472213791545
outer loop
vertex 194.1540164402509 93.26765285072405 2.300000000000001
vertex 63.65401644025084 96.71138285072405 4.739999999999999
vertex 63.65401644025084 93.26765285072405 2.300000000000001
endloop
endfacet
facet normal 4.289717775851779e-19 -0.5781263978782122 0.8159472213791545
outer loop
vertex 63.65401644025084 96.71138285072405 4.739999999999999
vertex 194.1540164402509 93.26765285072405 2.300000000000001
vertex 194.1540164402509 96.71138285072405 4.739999999999999
endloop
endfacet
facet normal -6.59230705189618e-18 2.090398309906918e-17 1.0
outer loop
vertex 129.3740164402508 19.557652850724033 2.3000000000000154
vertex 107.49401644025085 36.945152850724035 2.2999999999999985
vertex 107.49401644025085 19.557652850724033 2.2999999999999985
endloop
endfacet
facet normal -6.59230705189618e-18 2.090398309906918e-17 1.0
outer loop
vertex 107.49401644025085 36.945152850724035 2.2999999999999985
vertex 129.3740164402508 19.557652850724033 2.3000000000000154
vertex 107.49401644025085 57.45265285072404 2.2999999999999936
endloop
endfacet
facet normal -6.59230705189618e-18 2.090398309906918e-17 1.0
outer loop
vertex 107.49401644025085 57.45265285072404 2.2999999999999936
vertex 129.3740164402508 19.557652850724033 2.3000000000000154
vertex 107.49401644025085 73.80015285072405 2.2999999999999936
endloop
endfacet
facet normal -6.59230705189618e-18 2.090398309906918e-17 1.0
outer loop
vertex 194.1540164402509 19.557652850724033 2.300000000000001
vertex 145.32401644025086 36.945152850724035 2.2999999999999985
vertex 145.32401644025086 19.557652850724033 2.2999999999999985
endloop
endfacet
facet normal -6.59230705189618e-18 2.090398309906918e-17 1.0
outer loop
vertex 145.32401644025086 36.945152850724035 2.2999999999999985
vertex 194.1540164402509 19.557652850724033 2.300000000000001
vertex 145.32401644025086 57.45265285072404 2.2999999999999936
endloop
endfacet
facet normal -6.59230705189618e-18 2.090398309906918e-17 1.0
outer loop
vertex 145.32401644025086 57.45265285072404 2.2999999999999936
vertex 194.1540164402509 19.557652850724033 2.300000000000001
vertex 145.32401644025086 73.80015285072405 2.300000000000012
endloop
endfacet
facet normal -6.59230705189618e-18 2.090398309906918e-17 1.0
outer loop
vertex 91.54401644025084 19.557652850724033 2.300000000000001
vertex 63.65401644025084 93.26765285072405 2.300000000000001
vertex 63.65401644025084 19.557652850724033 2.300000000000001
endloop
endfacet
facet normal -6.59230705189618e-18 2.090398309906918e-17 1.0
outer loop
vertex 63.65401644025084 93.26765285072405 2.300000000000001
vertex 91.54401644025084 19.557652850724033 2.300000000000001
vertex 91.54401644025084 73.80015285072405 2.2999999999999963
endloop
endfacet
facet normal -6.59230705189618e-18 2.090398309906918e-17 1.0
outer loop
vertex 63.65401644025084 93.26765285072405 2.300000000000001
vertex 91.54401644025084 73.80015285072405 2.2999999999999963
vertex 194.1540164402509 93.26765285072405 2.300000000000001
endloop
endfacet
facet normal -6.59230705189618e-18 2.090398309906918e-17 1.0
outer loop
vertex 91.54401644025084 73.80015285072405 2.2999999999999963
vertex 91.54401644025084 19.557652850724033 2.300000000000001
vertex 91.54401644025084 36.945152850724035 2.2999999999999985
endloop
endfacet
facet normal -6.59230705189618e-18 2.090398309906918e-17 1.0
outer loop
vertex 91.54401644025084 73.80015285072405 2.2999999999999963
vertex 91.54401644025084 36.945152850724035 2.2999999999999985
vertex 91.54401644025084 57.45265285072404 2.2999999999999936
endloop
endfacet
facet normal -6.59230705189618e-18 2.090398309906918e-17 1.0
outer loop
vertex 194.1540164402509 93.26765285072405 2.300000000000001
vertex 91.54401644025084 73.80015285072405 2.2999999999999963
vertex 107.49401644025085 73.80015285072405 2.2999999999999936
endloop
endfacet
facet normal -6.59230705189618e-18 2.090398309906918e-17 1.0
outer loop
vertex 194.1540164402509 93.26765285072405 2.300000000000001
vertex 107.49401644025085 73.80015285072405 2.2999999999999936
vertex 129.3740164402508 73.80015285072405 2.300000000000012
endloop
endfacet
facet normal -6.59230705189618e-18 2.090398309906918e-17 1.0
outer loop
vertex 129.3740164402508 73.80015285072405 2.300000000000012
vertex 107.49401644025085 73.80015285072405 2.2999999999999936
vertex 129.3740164402508 19.557652850724033 2.3000000000000154
endloop
endfacet
facet normal -6.59230705189618e-18 2.090398309906918e-17 1.0
outer loop
vertex 129.3740164402508 73.80015285072405 2.300000000000012
vertex 129.3740164402508 19.557652850724033 2.3000000000000154
vertex 129.3740164402508 36.945152850724035 2.2999999999999985
endloop
endfacet
facet normal -6.59230705189618e-18 2.090398309906918e-17 1.0
outer loop
vertex 129.3740164402508 73.80015285072405 2.300000000000012
vertex 129.3740164402508 36.945152850724035 2.2999999999999985
vertex 129.3740164402508 57.45265285072404 2.300000000000012
endloop
endfacet
facet normal -6.59230705189618e-18 2.090398309906918e-17 1.0
outer loop
vertex 194.1540164402509 93.26765285072405 2.300000000000001
vertex 129.3740164402508 73.80015285072405 2.300000000000012
vertex 145.32401644025086 73.80015285072405 2.300000000000012
endloop
endfacet
facet normal -6.59230705189618e-18 2.090398309906918e-17 1.0
outer loop
vertex 194.1540164402509 93.26765285072405 2.300000000000001
vertex 145.32401644025086 73.80015285072405 2.300000000000012
vertex 194.1540164402509 19.557652850724033 2.300000000000001
endloop
endfacet
facet normal -6.59230705189618e-18 2.090398309906918e-17 1.0
outer loop
vertex 145.32401644025086 36.945152850724035 2.2999999999999985
vertex 129.3740164402508 57.45265285072404 2.300000000000012
vertex 129.3740164402508 36.945152850724035 2.2999999999999985
endloop
endfacet
facet normal -6.59230705189618e-18 2.090398309906918e-17 1.0
outer loop
vertex 129.3740164402508 57.45265285072404 2.300000000000012
vertex 145.32401644025086 36.945152850724035 2.2999999999999985
vertex 145.32401644025086 57.45265285072404 2.2999999999999936
endloop
endfacet
facet normal -6.59230705189618e-18 2.090398309906918e-17 1.0
outer loop
vertex 107.49401644025085 36.945152850724035 2.2999999999999985
vertex 91.54401644025084 57.45265285072404 2.2999999999999936
vertex 91.54401644025084 36.945152850724035 2.2999999999999985
endloop
endfacet
facet normal -6.59230705189618e-18 2.090398309906918e-17 1.0
outer loop
vertex 91.54401644025084 57.45265285072404 2.2999999999999936
vertex 107.49401644025085 36.945152850724035 2.2999999999999985
vertex 107.49401644025085 57.45265285072404 2.2999999999999936
endloop
endfacet
facet normal 0.0 -1.0 0.0
outer loop
vertex 194.1540164402509 100.51765285072402 8.140000000000002
vertex 63.65401644025085 100.51765285072402 4.739999999999999
vertex 194.1540164402509 100.51765285072402 4.739999999999999
endloop
endfacet
facet normal 0.0 -1.0 0.0
outer loop
vertex 63.65401644025085 100.51765285072402 4.739999999999999
vertex 194.1540164402509 100.51765285072402 8.140000000000002
vertex 63.65401644025085 100.51765285072402 8.140000000000002
endloop
endfacet
facet normal 1.0 6.285932658605244e-20 -1.2227404218235273e-15
outer loop
vertex 63.65401644025084 16.113922850724034 4.739999999999999
vertex 63.65401644025085 12.117652850724035 8.140000000000002
vertex 63.65401644025085 12.117652850724035 4.739999999999999
endloop
endfacet
facet normal 1.0 6.285932658605244e-20 -1.2227404218235273e-15
outer loop
vertex 63.65401644025085 12.117652850724035 8.140000000000002
vertex 63.65401644025084 16.113922850724034 4.739999999999999
vertex 63.65401644025085 15.237652850724043 9.996269999999996
endloop
endfacet
facet normal 1.0 6.285932658605244e-20 -1.2227404218235273e-15
outer loop
vertex 63.65401644025085 100.51765285072402 4.739999999999999
vertex 63.65401644025085 97.39765285072401 9.996269999999996
vertex 63.65401644025084 96.71138285072405 4.739999999999999
endloop
endfacet
facet normal 1.0 6.285932658605244e-20 -1.2227404218235273e-15
outer loop
vertex 63.65401644025085 97.39765285072401 9.996269999999996
vertex 63.65401644025085 100.51765285072402 4.739999999999999
vertex 63.65401644025085 100.51765285072402 8.140000000000002
endloop
endfacet
facet normal 1.0 6.285932658605244e-20 -1.2227404218235273e-15
outer loop
vertex 63.65401644025085 15.237652850724043 9.996269999999996
vertex 63.65401644025085 97.39765285072401 11.439999999999998
vertex 63.65401644025085 15.237652850724032 11.439999999999998
endloop
endfacet
facet normal 1.0 6.285932658605244e-20 -1.2227404218235273e-15
outer loop
vertex 63.65401644025085 97.39765285072401 11.439999999999998
vertex 63.65401644025085 15.237652850724043 9.996269999999996
vertex 63.65401644025084 16.113922850724034 4.739999999999999
endloop
endfacet
facet normal 1.0 6.285932658605244e-20 -1.2227404218235273e-15
outer loop
vertex 63.65401644025085 97.39765285072401 11.439999999999998
vertex 63.65401644025084 16.113922850724034 4.739999999999999
vertex 63.65401644025084 19.557652850724033 2.300000000000001
endloop
endfacet
facet normal 1.0 6.285932658605244e-20 -1.2227404218235273e-15
outer loop
vertex 63.65401644025085 97.39765285072401 11.439999999999998
vertex 63.65401644025084 19.557652850724033 2.300000000000001
vertex 63.65401644025084 93.26765285072405 2.300000000000001
endloop
endfacet
facet normal 1.0 6.285932658605244e-20 -1.2227404218235273e-15
outer loop
vertex 63.65401644025085 97.39765285072401 11.439999999999998
vertex 63.65401644025084 93.26765285072405 2.300000000000001
vertex 63.65401644025084 96.71138285072405 4.739999999999999
endloop
endfacet
facet normal 1.0 6.285932658605244e-20 -1.2227404218235273e-15
outer loop
vertex 63.65401644025085 97.39765285072401 11.439999999999998
vertex 63.65401644025084 96.71138285072405 4.739999999999999
vertex 63.65401644025085 97.39765285072401 9.996269999999996
endloop
endfacet
facet normal -3.072768438736068e-18 0.578126397878212 0.8159472213791549
outer loop
vertex 194.1540164402509 16.113922850724034 4.739999999999999
vertex 63.65401644025084 19.557652850724033 2.300000000000001
vertex 63.65401644025084 16.113922850724034 4.739999999999999
endloop
endfacet
facet normal -3.072768438736068e-18 0.578126397878212 0.8159472213791549
outer loop
vertex 63.65401644025084 19.557652850724033 2.300000000000001
vertex 194.1540164402509 16.113922850724034 4.739999999999999
vertex 91.54401644025084 19.557652850724033 2.300000000000001
endloop
endfacet
facet normal -3.072768438736068e-18 0.578126397878212 0.8159472213791549
outer loop
vertex 91.54401644025084 19.557652850724033 2.300000000000001
vertex 194.1540164402509 16.113922850724034 4.739999999999999
vertex 107.49401644025085 19.557652850724033 2.2999999999999985
endloop
endfacet
facet normal -3.072768438736068e-18 0.578126397878212 0.8159472213791549
outer loop
vertex 107.49401644025085 19.557652850724033 2.2999999999999985
vertex 194.1540164402509 16.113922850724034 4.739999999999999
vertex 129.3740164402508 19.557652850724033 2.3000000000000154
endloop
endfacet
facet normal -3.072768438736068e-18 0.578126397878212 0.8159472213791549
outer loop
vertex 129.3740164402508 19.557652850724033 2.3000000000000154
vertex 194.1540164402509 16.113922850724034 4.739999999999999
vertex 145.32401644025086 19.557652850724033 2.2999999999999985
endloop
endfacet
facet normal -3.072768438736068e-18 0.578126397878212 0.8159472213791549
outer loop
vertex 145.32401644025086 19.557652850724033 2.2999999999999985
vertex 194.1540164402509 16.113922850724034 4.739999999999999
vertex 194.1540164402509 19.557652850724033 2.300000000000001
endloop
endfacet
facet normal -6.124194336988736e-19 0.511306321360119 -0.8593985371974885
outer loop
vertex 172.81658525673714 15.237652850724043 9.996269999999996
vertex 63.65401644025085 12.117652850724035 8.140000000000002
vertex 63.65401644025085 15.237652850724043 9.996269999999996
endloop
endfacet
facet normal -6.124194336988736e-19 0.511306321360119 -0.8593985371974885
outer loop
vertex 63.65401644025085 12.117652850724035 8.140000000000002
vertex 172.81658525673714 15.237652850724043 9.996269999999996
vertex 194.1540164402509 12.117652850724035 8.140000000000002
endloop
endfacet
facet normal -6.124194336988736e-19 0.511306321360119 -0.8593985371974885
outer loop
vertex 194.1540164402509 12.117652850724035 8.140000000000002
vertex 172.81658525673714 15.237652850724043 9.996269999999996
vertex 183.5540164402509 15.237652850724043 9.996269999999996
endloop
endfacet
facet normal -6.124194336988736e-19 0.511306321360119 -0.8593985371974885
outer loop
vertex 194.1540164402509 12.117652850724035 8.140000000000002
vertex 183.5540164402509 15.237652850724043 9.996269999999996
vertex 194.1540164402509 15.237652850724043 9.996269999999996
endloop
endfacet
facet normal -0.0 -0.0 1.0
outer loop
vertex 63.65401644025085 12.117652850724035 4.739999999999999
vertex 194.1540164402509 16.113922850724034 4.739999999999999
vertex 63.65401644025084 16.113922850724034 4.739999999999999
endloop
endfacet
facet normal -0.0 -0.0 1.0
outer loop
vertex 194.1540164402509 16.113922850724034 4.739999999999999
vertex 63.65401644025085 12.117652850724035 4.739999999999999
vertex 194.1540164402509 12.117652850724035 4.739999999999999
endloop
endfacet
facet normal -0.0 1.0 -0.0
outer loop
vertex 129.3740164402508 19.557652850724033 1.973976537783528e-14
vertex 145.32401644025086 19.557652850724033 2.2999999999999985
vertex 145.32401644025086 19.557652850724033 2.8199664825478975e-15
endloop
endfacet
facet normal -0.0 1.0 -0.0
outer loop
vertex 145.32401644025086 19.557652850724033 2.2999999999999985
vertex 129.3740164402508 19.557652850724033 1.973976537783528e-14
vertex 129.3740164402508 19.557652850724033 2.3000000000000154
endloop
endfacet
facet normal -0.0 1.0 -0.0
outer loop
vertex 91.54401644025084 19.557652850724033 5.287437154777308e-15
vertex 107.49401644025085 19.557652850724033 2.2999999999999985
vertex 107.49401644025085 19.557652850724033 2.8199664825478975e-15
endloop
endfacet
facet normal -0.0 1.0 -0.0
outer loop
vertex 107.49401644025085 19.557652850724033 2.2999999999999985
vertex 91.54401644025084 19.557652850724033 5.287437154777308e-15
vertex 91.54401644025084 19.557652850724033 2.300000000000001
endloop
endfacet
facet normal -6.111771907709539e-17 1.0 5.966104198220827e-16
outer loop
vertex 63.65401644025085 15.237652850724032 11.439999999999998
vertex 172.81658525673714 15.237652850724043 9.996269999999996
vertex 63.65401644025085 15.237652850724043 9.996269999999996
endloop
endfacet
facet normal -6.111771907709539e-17 1.0 5.966104198220827e-16
outer loop
vertex 172.81658525673714 15.237652850724043 9.996269999999996
vertex 63.65401644025085 15.237652850724032 11.439999999999998
vertex 164.1540164402509 15.237652850724043 11.44
endloop
endfacet
facet normal -6.111771907709539e-17 1.0 5.966104198220827e-16
outer loop
vertex 172.81658525673714 15.237652850724043 9.996269999999996
vertex 164.1540164402509 15.237652850724043 11.44
vertex 172.81658525673714 15.237652850724043 14.996269999999996
endloop
endfacet
facet normal 0.0 -1.0 0.0
outer loop
vertex 194.1540164402509 97.39765285072401 11.44
vertex 183.5540164402509 97.39765285072401 9.996269999999996
vertex 194.1540164402509 97.39765285072401 9.996269999999996
endloop
endfacet
facet normal 0.0 -1.0 0.0
outer loop
vertex 183.5540164402509 97.39765285072401 9.996269999999996
vertex 194.1540164402509 97.39765285072401 11.44
vertex 183.5540164402509 97.39765285072401 14.996269999999996
endloop
endfacet
facet normal 3.062097168494378e-19 -0.5113063213601198 -0.859398537197488
outer loop
vertex 194.1540164402509 100.51765285072402 8.140000000000002
vertex 63.65401644025085 97.39765285072401 9.996269999999996
vertex 63.65401644025085 100.51765285072402 8.140000000000002
endloop
endfacet
facet normal 3.062097168494378e-19 -0.5113063213601198 -0.859398537197488
outer loop
vertex 63.65401644025085 97.39765285072401 9.996269999999996
vertex 194.1540164402509 100.51765285072402 8.140000000000002
vertex 172.81658525673714 97.39765285072401 9.996269999999996
endloop
endfacet
facet normal 3.062097168494378e-19 -0.5113063213601198 -0.859398537197488
outer loop
vertex 172.81658525673714 97.39765285072401 9.996269999999996
vertex 194.1540164402509 100.51765285072402 8.140000000000002
vertex 183.5540164402509 97.39765285072401 9.996269999999996
endloop
endfacet
facet normal 3.062097168494378e-19 -0.5113063213601198 -0.859398537197488
outer loop
vertex 183.5540164402509 97.39765285072401 9.996269999999996
vertex 194.1540164402509 100.51765285072402 8.140000000000002
vertex 194.1540164402509 97.39765285072401 9.996269999999996
endloop
endfacet
facet normal 0.22312938808566504 -0.9747888367090162 -1.3745753774097227e-17
outer loop
vertex 183.5540164402509 97.39765285072401 14.996269999999996
vertex 174.81658525673714 95.39765285072401 10.99627
vertex 183.5540164402509 97.39765285072401 9.996269999999996
endloop
endfacet
facet normal 0.22312938808566504 -0.9747888367090162 -1.3745753774097227e-17
outer loop
vertex 174.81658525673714 95.39765285072401 10.99627
vertex 183.5540164402509 97.39765285072401 14.996269999999996
vertex 174.81658525673714 95.39765285072401 13.996269999999997
endloop
endfacet
facet normal 0.0 -1.0 0.0
outer loop
vertex 183.5540164402509 97.39765285072401 14.996269999999996
vertex 172.81658525673714 97.39765285072401 9.996269999999996
vertex 183.5540164402509 97.39765285072401 9.996269999999996
endloop
endfacet
facet normal 0.0 -1.0 0.0
outer loop
vertex 172.81658525673714 97.39765285072401 9.996269999999996
vertex 183.5540164402509 97.39765285072401 14.996269999999996
vertex 172.81658525673714 97.39765285072401 14.996269999999996
endloop
endfacet
facet normal 1.0 -0.0 -0.0
outer loop
vertex 194.1540164402509 9.117652850724033 1.0574874309554614e-15
vertex 194.1540164402509 12.117652850724035 4.739999999999999
vertex 194.1540164402509 9.117652850724033 11.44
endloop
endfacet
facet normal 1.0 -0.0 -0.0
outer loop
vertex 194.1540164402509 12.117652850724035 4.739999999999999
vertex 194.1540164402509 9.117652850724033 1.0574874309554614e-15
vertex 194.1540164402509 19.557652850724033 2.300000000000001
endloop
endfacet
facet normal 1.0 -0.0 -0.0
outer loop
vertex 194.1540164402509 19.557652850724033 2.300000000000001
vertex 194.1540164402509 9.117652850724033 1.0574874309554614e-15
vertex 194.1540164402509 103.51765285072396 1.0574874309554614e-15
endloop
endfacet
facet normal 1.0 -0.0 -0.0
outer loop
vertex 194.1540164402509 12.117652850724035 4.739999999999999
vertex 194.1540164402509 19.557652850724033 2.300000000000001
vertex 194.1540164402509 16.113922850724034 4.739999999999999
endloop
endfacet
facet normal 1.0 -0.0 -0.0
outer loop
vertex 194.1540164402509 19.557652850724033 2.300000000000001
vertex 194.1540164402509 103.51765285072396 1.0574874309554614e-15
vertex 194.1540164402509 93.26765285072405 2.300000000000001
endloop
endfacet
facet normal 1.0 -0.0 -0.0
outer loop
vertex 194.1540164402509 93.26765285072405 2.300000000000001
vertex 194.1540164402509 103.51765285072396 1.0574874309554614e-15
vertex 194.1540164402509 96.71138285072405 4.739999999999999
endloop
endfacet
facet normal 1.0 -0.0 -0.0
outer loop
vertex 194.1540164402509 96.71138285072405 4.739999999999999
vertex 194.1540164402509 103.51765285072396 1.0574874309554614e-15
vertex 194.1540164402509 100.51765285072402 4.739999999999999
endloop
endfacet
facet normal 1.0 -0.0 -0.0
outer loop
vertex 194.1540164402509 100.51765285072402 4.739999999999999
vertex 194.1540164402509 103.51765285072396 1.0574874309554614e-15
vertex 194.1540164402509 100.51765285072402 8.140000000000002
endloop
endfacet
facet normal 1.0 -0.0 -0.0
outer loop
vertex 194.1540164402509 100.51765285072402 8.140000000000002
vertex 194.1540164402509 97.39765285072401 11.44
vertex 194.1540164402509 97.39765285072401 9.996269999999996
endloop
endfacet
facet normal 1.0 -0.0 -0.0
outer loop
vertex 194.1540164402509 97.39765285072401 11.44
vertex 194.1540164402509 100.51765285072402 8.140000000000002
vertex 194.1540164402509 103.51765285072396 11.44
endloop
endfacet
facet normal 1.0 -0.0 -0.0
outer loop
vertex 194.1540164402509 103.51765285072396 11.44
vertex 194.1540164402509 100.51765285072402 8.140000000000002
vertex 194.1540164402509 103.51765285072396 1.0574874309554614e-15
endloop
endfacet
facet normal 1.0 -0.0 -0.0
outer loop
vertex 194.1540164402509 9.117652850724033 11.44
vertex 194.1540164402509 12.117652850724035 8.140000000000002
vertex 194.1540164402509 15.237652850724043 11.44
endloop
endfacet
facet normal 1.0 -0.0 -0.0
outer loop
vertex 194.1540164402509 12.117652850724035 8.140000000000002
vertex 194.1540164402509 9.117652850724033 11.44
vertex 194.1540164402509 12.117652850724035 4.739999999999999
endloop
endfacet
facet normal 1.0 -0.0 -0.0
outer loop
vertex 194.1540164402509 15.237652850724043 11.44
vertex 194.1540164402509 12.117652850724035 8.140000000000002
vertex 194.1540164402509 15.237652850724043 9.996269999999996
endloop
endfacet
facet normal -2.4497778323292484e-16 -2.376821346968633e-16 1.0
outer loop
vertex 143.82401644025086 58.952652850724036 4.740000000000015
vertex 130.8740164402508 72.30015285072405 4.740000000000015
vertex 130.8740164402508 58.952652850724036 4.740000000000009
endloop
endfacet
facet normal -2.4497778323292484e-16 -2.376821346968633e-16 1.0
outer loop
vertex 130.8740164402508 72.30015285072405 4.740000000000015
vertex 143.82401644025086 58.952652850724036 4.740000000000015
vertex 143.82401644025086 72.30015285072405 4.740000000000015
endloop
endfacet
facet normal 1.0 -0.0 -0.0
outer loop
vertex 143.82401644025086 72.30015285072405 1.5312463281850114e-14
vertex 143.82401644025086 58.952652850724036 4.740000000000015
vertex 143.82401644025086 58.952652850724036 1.5312463281850114e-14
endloop
endfacet
facet normal 1.0 -0.0 -0.0
outer loop
vertex 143.82401644025086 58.952652850724036 4.740000000000015
vertex 143.82401644025086 72.30015285072405 1.5312463281850114e-14
vertex 143.82401644025086 72.30015285072405 4.740000000000015
endloop
endfacet
facet normal 0.0 -1.0 0.0
outer loop
vertex 143.82401644025086 58.952652850724036 1.5312463281850114e-14
vertex 130.8740164402508 58.952652850724036 4.740000000000009
vertex 130.8740164402508 58.952652850724036 9.276553518513833e-15
endloop
endfacet
facet normal 0.0 -1.0 0.0
outer loop
vertex 130.8740164402508 58.952652850724036 4.740000000000009
vertex 143.82401644025086 58.952652850724036 1.5312463281850114e-14
vertex 143.82401644025086 58.952652850724036 4.740000000000015
endloop
endfacet
facet normal -1.0 0.0 0.0
outer loop
vertex 130.8740164402508 72.30015285072405 4.740000000000015
vertex 130.8740164402508 58.952652850724036 9.276553518513833e-15
vertex 130.8740164402508 58.952652850724036 4.740000000000009
endloop
endfacet
facet normal -1.0 0.0 0.0
outer loop
vertex 130.8740164402508 58.952652850724036 9.276553518513833e-15
vertex 130.8740164402508 72.30015285072405 4.740000000000015
vertex 130.8740164402508 72.30015285072405 1.5312463281850114e-14
endloop
endfacet
facet normal -0.0 1.0 -0.0
outer loop
vertex 130.8740164402508 72.30015285072405 4.740000000000015
vertex 143.82401644025086 72.30015285072405 1.5312463281850114e-14
vertex 130.8740164402508 72.30015285072405 1.5312463281850114e-14
endloop
endfacet
facet normal -0.0 1.0 -0.0
outer loop
vertex 143.82401644025086 72.30015285072405 1.5312463281850114e-14
vertex 130.8740164402508 72.30015285072405 4.740000000000015
vertex 143.82401644025086 72.30015285072405 4.740000000000015
endloop
endfacet
facet normal 2.330467090091223e-16 2.261063780983809e-16 -1.0
outer loop
vertex 143.82401644025086 72.30015285072405 1.5312463281850114e-14
vertex 130.8740164402508 58.952652850724036 9.276553518513833e-15
vertex 130.8740164402508 72.30015285072405 1.5312463281850114e-14
endloop
endfacet
facet normal 2.330467090091223e-16 2.261063780983809e-16 -1.0
outer loop
vertex 130.8740164402508 58.952652850724036 9.276553518513833e-15
vertex 143.82401644025086 72.30015285072405 1.5312463281850114e-14
vertex 143.82401644025086 58.952652850724036 1.5312463281850114e-14
endloop
endfacet
facet normal -5.035654433121235e-16 -4.544967971336055e-16 -1.0
outer loop
vertex 143.82401644025086 35.445152850724035 -1.1474014013218569e-14
vertex 130.8740164402508 21.057652850724036 1.5862311464331924e-15
vertex 130.8740164402508 35.445152850724035 -1.1474014013218567e-14
endloop
endfacet
facet normal -5.035654433121235e-16 -4.544967971336055e-16 -1.0
outer loop
vertex 130.8740164402508 21.057652850724036 1.5862311464331924e-15
vertex 143.82401644025086 35.445152850724035 -1.1474014013218569e-14
vertex 143.82401644025086 21.057652850724036 -1.1456113835350834e-14
endloop
endfacet
facet normal 4.899555664658498e-16 4.4100257763564004e-16 1.0
outer loop
vertex 143.82401644025086 21.05765285072404 4.739999999999989
vertex 130.8740164402508 35.445152850724035 4.739999999999989
vertex 130.8740164402508 21.05765285072404 4.740000000000002
endloop
endfacet
facet normal 4.899555664658498e-16 4.4100257763564004e-16 1.0
outer loop
vertex 130.8740164402508 35.445152850724035 4.739999999999989
vertex 143.82401644025086 21.05765285072404 4.739999999999989
vertex 143.82401644025086 35.445152850724035 4.739999999999989
endloop
endfacet
facet normal -1.0 0.0 0.0
outer loop
vertex 130.8740164402508 21.05765285072404 4.740000000000002
vertex 130.8740164402508 35.445152850724035 -1.1474014013218567e-14
vertex 130.8740164402508 21.057652850724036 1.5862311464331924e-15
endloop
endfacet
facet normal -1.0 0.0 0.0
outer loop
vertex 130.8740164402508 35.445152850724035 -1.1474014013218567e-14
vertex 130.8740164402508 21.05765285072404 4.740000000000002
vertex 130.8740164402508 35.445152850724035 4.739999999999989
endloop
endfacet
facet normal -0.0 1.0 -0.0
outer loop
vertex 130.8740164402508 35.445152850724035 -1.1474014013218567e-14
vertex 143.82401644025086 35.445152850724035 4.739999999999989
vertex 143.82401644025086 35.445152850724035 -1.1474014013218569e-14
endloop
endfacet
facet normal -0.0 1.0 -0.0
outer loop
vertex 143.82401644025086 35.445152850724035 4.739999999999989
vertex 130.8740164402508 35.445152850724035 -1.1474014013218567e-14
vertex 130.8740164402508 35.445152850724035 4.739999999999989
endloop
endfacet
facet normal 1.0 -0.0 -0.0
outer loop
vertex 143.82401644025086 35.445152850724035 -1.1474014013218569e-14
vertex 143.82401644025086 21.05765285072404 4.739999999999989
vertex 143.82401644025086 21.057652850724036 -1.1456113835350834e-14
endloop
endfacet
facet normal 1.0 -0.0 -0.0
outer loop
vertex 143.82401644025086 21.05765285072404 4.739999999999989
vertex 143.82401644025086 35.445152850724035 -1.1474014013218569e-14
vertex 143.82401644025086 35.445152850724035 4.739999999999989
endloop
endfacet
facet normal 5.876049861769994e-31 -1.0 5.949296376683328e-16
outer loop
vertex 143.82401644025086 21.05765285072404 4.739999999999989
vertex 130.8740164402508 21.057652850724036 1.5862311464331924e-15
vertex 143.82401644025086 21.057652850724036 -1.1456113835350834e-14
endloop
endfacet
facet normal 5.876049861769994e-31 -1.0 5.949296376683328e-16
outer loop
vertex 130.8740164402508 21.057652850724036 1.5862311464331924e-15
vertex 143.82401644025086 21.05765285072404 4.739999999999989
vertex 130.8740164402508 21.05765285072404 4.740000000000002
endloop
endfacet
endsolid numpad1379~
