solid numpad1379
facet normal 0.0 -1.0 0.0
outer loop
vertex 62.154016440250885 9.117652850724033 11.439999999999998
vertex 60.65401644025089 9.117652850724033 9.940000000000003
vertex 116.73530084849403 9.117652850724033 11.439999999999998
endloop
endfacet
facet normal 0.0 -1.0 0.0
outer loop
vertex 194.1540164402509 9.117652850724033 1.0574874309554614e-15
vertex 60.65401644025089 9.117652850724033 9.940000000000003
vertex 60.65401644025089 9.117652850724033 -1.762479051592436e-15
endloop
endfacet
facet normal 0.0 -1.0 0.0
outer loop
vertex 60.65401644025089 9.117652850724033 9.940000000000003
vertex 194.1540164402509 9.117652850724033 1.0574874309554614e-15
vertex 194.1540164402509 9.117652850724033 11.44
endloop
endfacet
facet normal 0.0 -1.0 0.0
outer loop
vertex 60.65401644025089 9.117652850724033 9.940000000000003
vertex 194.1540164402509 9.117652850724033 11.44
vertex 116.73530084849403 9.117652850724033 11.439999999999998
endloop
endfacet
facet normal 0.0 -1.0 0.0
outer loop
vertex 116.73530084849403 9.117652850724033 11.439999999999998
vertex 194.1540164402509 9.117652850724033 11.44
vertex 172.81658525673714 9.117652850724033 18.439999999999994
endloop
endfacet
facet normal 0.0 -1.0 0.0
outer loop
vertex 172.81658525673714 9.117652850724033 18.439999999999994
vertex 194.1540164402509 9.117652850724033 11.44
vertex 183.5540164402509 9.117652850724033 18.439999999999994
endloop
endfacet
facet normal 0.0 0.0 -1.0
outer loop
vertex 194.1540164402509 100.51765285072402 8.140000000000002
vertex 63.65401644025085 97.39765285072401 8.140000000000002
vertex 63.65401644025085 100.51765285072402 8.140000000000002
endloop
endfacet
facet normal 0.0 0.0 -1.0
outer loop
vertex 63.65401644025085 97.39765285072401 8.140000000000002
vertex 194.1540164402509 100.51765285072402 8.140000000000002
vertex 194.1540164402509 97.39765285072401 8.140000000000002
endloop
endfacet
facet normal 0.0 0.0 -1.0
outer loop
vertex 194.1540164402509 15.237652850724043 8.140000000000002
vertex 63.65401644025085 12.117652850724035 8.140000000000002
vertex 63.65401644025085 15.237652850724043 8.140000000000002
endloop
endfacet
facet normal 0.0 0.0 -1.0
outer loop
vertex 63.65401644025085 12.117652850724035 8.140000000000002
vertex 194.1540164402509 15.237652850724043 8.140000000000002
vertex 194.1540164402509 12.117652850724035 8.140000000000002
endloop
endfacet
facet normal -0.0 1.0 -0.0
outer loop
vertex 63.65401644025085 12.117652850724035 8.140000000000002
vertex 194.1540164402509 12.117652850724035 4.739999999999999
vertex 63.65401644025085 12.117652850724035 4.739999999999999
endloop
endfacet
facet normal -0.0 1.0 -0.0
outer loop
vertex 194.1540164402509 12.117652850724035 4.739999999999999
vertex 63.65401644025085 12.117652850724035 8.140000000000002
vertex 194.1540164402509 12.117652850724035 8.140000000000002
endloop
endfacet
facet normal 0.0 -1.0 0.0
outer loop
vertex 194.1540164402509 100.51765285072402 8.140000000000002
vertex 63.65401644025085 100.51765285072402 4.739999999999999
vertex 194.1540164402509 100.51765285072402 4.739999999999999
endloop
endfacet
facet normal 0.0 -1.0 0.0
outer loop
vertex 63.65401644025085 100.51765285072402 4.739999999999999
vertex 194.1540164402509 100.51765285072402 8.140000000000002
vertex 63.65401644025085 100.51765285072402 8.140000000000002
endloop
endfacet
facet normal -4.1027082590809615e-18 -0.4472135954999601 -0.894427190999915
outer loop
vertex 183.5540164402509 97.39765285072401 13.439999999999996
vertex 174.81658525673714 95.39765285072401 14.44
vertex 172.81658525673714 97.39765285072401 13.439999999999996
endloop
endfacet
facet normal 0.22312938808566504 -0.9747888367090162 -1.3745753774097227e-17
outer loop
vertex 183.5540164402509 97.39765285072401 18.439999999999994
vertex 174.81658525673714 95.39765285072401 14.44
vertex 183.5540164402509 97.39765285072401 13.439999999999996
endloop
endfacet
facet normal 0.22312938808566504 -0.9747888367090162 -1.3745753774097227e-17
outer loop
vertex 174.81658525673714 95.39765285072401 14.44
vertex 183.5540164402509 97.39765285072401 18.439999999999994
vertex 174.81658525673714 95.39765285072401 17.439999999999998
endloop
endfacet
facet normal -0.7071067811865476 -0.7071067811865476 0.0
outer loop
vertex 172.81658525673714 97.39765285072401 18.439999999999994
vertex 174.81658525673714 95.39765285072401 14.44
vertex 174.81658525673714 95.39765285072401 17.439999999999998
endloop
endfacet
facet normal -0.7071067811865476 -0.7071067811865476 0.0
outer loop
vertex 174.81658525673714 95.39765285072401 14.44
vertex 172.81658525673714 97.39765285072401 18.439999999999994
vertex 172.81658525673714 97.39765285072401 13.439999999999996
endloop
endfacet
facet normal -4.102708259080966e-18 -0.44721359549995804 0.8944271909999161
outer loop
vertex 183.5540164402509 97.39765285072401 18.439999999999994
vertex 172.81658525673714 97.39765285072401 18.439999999999994
vertex 174.81658525673714 95.39765285072401 17.439999999999998
endloop
endfacet
facet normal 0.0 -1.0 0.0
outer loop
vertex 183.5540164402509 97.39765285072401 18.439999999999994
vertex 172.81658525673714 97.39765285072401 13.439999999999996
vertex 183.5540164402509 97.39765285072401 13.439999999999996
endloop
endfacet
facet normal 0.0 -1.0 0.0
outer loop
vertex 172.81658525673714 97.39765285072401 13.439999999999996
vertex 183.5540164402509 97.39765285072401 18.439999999999994
vertex 172.81658525673714 97.39765285072401 18.439999999999994
endloop
endfacet
facet normal -0.0 -0.0 1.0
outer loop
vertex 183.5540164402509 97.39765285072401 18.439999999999994
vertex 172.81658525673714 103.51765285072396 18.439999999999994
vertex 172.81658525673714 97.39765285072401 18.439999999999994
endloop
endfacet
facet normal -0.0 -0.0 1.0
outer loop
vertex 172.81658525673714 103.51765285072396 18.439999999999994
vertex 183.5540164402509 97.39765285072401 18.439999999999994
vertex 183.5540164402509 103.51765285072396 18.439999999999994
endloop
endfacet
facet normal 0.0 1.0 0.0
outer loop
vertex 60.65401644025089 103.51765285072396 9.940000000000003
vertex 194.1540164402509 103.51765285072396 1.0574874309554614e-15
vertex 60.65401644025087 103.51765285072396 -1.762479051592436e-15
endloop
endfacet
facet normal 0.0 1.0 0.0
outer loop
vertex 194.1540164402509 103.51765285072396 1.0574874309554614e-15
vertex 60.65401644025089 103.51765285072396 9.940000000000003
vertex 194.1540164402509 103.51765285072396 11.44
endloop
endfacet
facet normal 0.0 1.0 0.0
outer loop
vertex 194.1540164402509 103.51765285072396 11.44
vertex 60.65401644025089 103.51765285072396 9.940000000000003
vertex 116.735300848494 103.51765285072396 11.439999999999998
endloop
endfacet
facet normal 0.0 1.0 0.0
outer loop
vertex 116.735300848494 103.51765285072396 11.439999999999998
vertex 60.65401644025089 103.51765285072396 9.940000000000003
vertex 62.154016440250885 103.51765285072396 11.439999999999998
endloop
endfacet
facet normal 0.0 1.0 0.0
outer loop
vertex 194.1540164402509 103.51765285072396 11.44
vertex 116.735300848494 103.51765285072396 11.439999999999998
vertex 172.81658525673714 103.51765285072396 18.439999999999994
endloop
endfacet
facet normal 0.0 1.0 0.0
outer loop
vertex 194.1540164402509 103.51765285072396 11.44
vertex 172.81658525673714 103.51765285072396 18.439999999999994
vertex 183.5540164402509 103.51765285072396 18.439999999999994
endloop
endfacet
facet normal 4.102708259080938e-18 0.4472135954999589 -0.8944271909999153
outer loop
vertex 183.5540164402509 15.237652850724043 13.439999999999996
vertex 172.81658525673714 15.237652850724043 13.439999999999996
vertex 174.81658525673714 17.237652850724047 14.44
endloop
endfacet
facet normal -4.102708259080944e-18 0.4472135954999569 0.8944271909999164
outer loop
vertex 183.5540164402509 15.237652850724043 18.439999999999994
vertex 174.81658525673714 17.237652850724047 17.439999999999998
vertex 172.81658525673714 15.237652850724043 18.439999999999994
endloop
endfacet
facet normal -0.7071067811865486 0.7071067811865466 1.1637877420088264e-17
outer loop
vertex 174.81658525673714 17.237652850724047 17.439999999999998
vertex 172.81658525673714 15.237652850724043 13.439999999999996
vertex 172.81658525673714 15.237652850724043 18.439999999999994
endloop
endfacet
facet normal -0.7071067811865486 0.7071067811865466 1.1637877420088264e-17
outer loop
vertex 172.81658525673714 15.237652850724043 13.439999999999996
vertex 174.81658525673714 17.237652850724047 17.439999999999998
vertex 174.81658525673714 17.237652850724047 14.44
endloop
endfacet
facet normal 0.2231293880856656 0.974788836709016 1.698720401915766e-17
outer loop
vertex 174.81658525673714 17.237652850724047 14.44
vertex 183.5540164402509 15.237652850724043 18.439999999999994
vertex 183.5540164402509 15.237652850724043 13.439999999999996
endloop
endfacet
facet normal 0.2231293880856656 0.974788836709016 1.698720401915766e-17
outer loop
vertex 183.5540164402509 15.237652850724043 18.439999999999994
vertex 174.81658525673714 17.237652850724047 14.44
vertex 174.81658525673714 17.237652850724047 17.439999999999998
endloop
endfacet
facet normal 1.0 6.78087445108585e-20 -1.289896766582712e-15
outer loop
vertex 63.65401644025084 19.557652850724033 4.739999999999999
vertex 63.65401644025085 12.117652850724035 8.140000000000002
vertex 63.65401644025085 12.117652850724035 4.739999999999999
endloop
endfacet
facet normal 1.0 6.78087445108585e-20 -1.289896766582712e-15
outer loop
vertex 63.65401644025085 12.117652850724035 8.140000000000002
vertex 63.65401644025084 19.557652850724033 4.739999999999999
vertex 63.65401644025085 15.237652850724043 8.140000000000002
endloop
endfacet
facet normal 1.0 6.78087445108585e-20 -1.289896766582712e-15
outer loop
vertex 63.65401644025084 93.26765285072405 2.300000000000001
vertex 63.65401644025084 19.557652850724033 4.739999999999999
vertex 63.65401644025084 19.557652850724033 2.300000000000001
endloop
endfacet
facet normal 1.0 6.78087445108585e-20 -1.289896766582712e-15
outer loop
vertex 63.65401644025085 100.51765285072402 4.739999999999999
vertex 63.65401644025085 97.39765285072401 8.140000000000002
vertex 63.65401644025084 93.26765285072405 4.739999999999999
endloop
endfacet
facet normal 1.0 6.78087445108585e-20 -1.289896766582712e-15
outer loop
vertex 63.65401644025085 97.39765285072401 8.140000000000002
vertex 63.65401644025085 100.51765285072402 4.739999999999999
vertex 63.65401644025085 100.51765285072402 8.140000000000002
endloop
endfacet
facet normal 1.0 6.78087445108585e-20 -1.289896766582712e-15
outer loop
vertex 63.65401644025085 15.237652850724043 8.140000000000002
vertex 63.65401644025085 97.39765285072401 11.439999999999998
vertex 63.65401644025085 15.237652850724032 11.439999999999998
endloop
endfacet
facet normal 1.0 6.78087445108585e-20 -1.289896766582712e-15
outer loop
vertex 63.65401644025085 97.39765285072401 11.439999999999998
vertex 63.65401644025085 15.237652850724043 8.140000000000002
vertex 63.65401644025084 19.557652850724033 4.739999999999999
endloop
endfacet
facet normal 1.0 6.78087445108585e-20 -1.289896766582712e-15
outer loop
vertex 63.65401644025085 97.39765285072401 11.439999999999998
vertex 63.65401644025084 19.557652850724033 4.739999999999999
vertex 63.65401644025084 93.26765285072405 4.739999999999999
endloop
endfacet
facet normal 1.0 6.78087445108585e-20 -1.289896766582712e-15
outer loop
vertex 63.65401644025084 93.26765285072405 4.739999999999999
vertex 63.65401644025084 19.557652850724033 4.739999999999999
vertex 63.65401644025084 93.26765285072405 2.300000000000001
endloop
endfacet
facet normal 1.0 6.78087445108585e-20 -1.289896766582712e-15
outer loop
vertex 63.65401644025085 97.39765285072401 11.439999999999998
vertex 63.65401644025084 93.26765285072405 4.739999999999999
vertex 63.65401644025085 97.39765285072401 8.140000000000002
endloop
endfacet
facet normal -0.12385771808686236 -0.0 0.9922999877407614
outer loop
vertex 172.81658525673714 97.39765285072401 18.439999999999994
vertex 116.735300848494 103.51765285072396 11.439999999999998
vertex 116.735300848494 97.39765285072401 11.439999999999998
endloop
endfacet
facet normal -0.12385771808686236 -0.0 0.9922999877407614
outer loop
vertex 116.735300848494 103.51765285072396 11.439999999999998
vertex 172.81658525673714 97.39765285072401 18.439999999999994
vertex 172.81658525673714 103.51765285072396 18.439999999999994
endloop
endfacet
facet normal -7.502712999821797e-17 1.0 5.3935886518069495e-17
outer loop
vertex 63.65401644025085 15.237652850724032 11.439999999999998
vertex 194.1540164402509 15.237652850724043 8.140000000000002
vertex 63.65401644025085 15.237652850724043 8.140000000000002
endloop
endfacet
facet normal -7.502712999821797e-17 1.0 5.3935886518069495e-17
outer loop
vertex 194.1540164402509 15.237652850724043 8.140000000000002
vertex 63.65401644025085 15.237652850724032 11.439999999999998
vertex 116.73530084849403 15.23765285072402 11.439999999999998
endloop
endfacet
facet normal -7.502712999821797e-17 1.0 5.3935886518069495e-17
outer loop
vertex 194.1540164402509 15.237652850724043 8.140000000000002
vertex 116.73530084849403 15.23765285072402 11.439999999999998
vertex 194.1540164402509 15.237652850724043 11.44
endloop
endfacet
facet normal -7.502712999821797e-17 1.0 5.3935886518069495e-17
outer loop
vertex 194.1540164402509 15.237652850724043 11.44
vertex 116.73530084849403 15.23765285072402 11.439999999999998
vertex 172.81658525673714 15.237652850724043 13.439999999999996
endloop
endfacet
facet normal -7.502712999821797e-17 1.0 5.3935886518069495e-17
outer loop
vertex 172.81658525673714 15.237652850724043 13.439999999999996
vertex 116.73530084849403 15.23765285072402 11.439999999999998
vertex 172.81658525673714 15.237652850724043 18.439999999999994
endloop
endfacet
facet normal -7.502712999821797e-17 1.0 5.3935886518069495e-17
outer loop
vertex 194.1540164402509 15.237652850724043 11.44
vertex 183.5540164402509 15.237652850724043 13.439999999999996
vertex 183.5540164402509 15.237652850724043 18.439999999999994
endloop
endfacet
facet normal -7.502712999821797e-17 1.0 5.3935886518069495e-17
outer loop
vertex 183.5540164402509 15.237652850724043 13.439999999999996
vertex 194.1540164402509 15.237652850724043 11.44
vertex 172.81658525673714 15.237652850724043 13.439999999999996
endloop
endfacet
facet normal 0.0 -1.0 0.0
outer loop
vertex 183.5540164402509 97.39765285072401 18.439999999999994
vertex 183.5540164402509 97.39765285072401 13.439999999999996
vertex 194.1540164402509 97.39765285072401 11.44
endloop
endfacet
facet normal 0.0 -1.0 0.0
outer loop
vertex 194.1540164402509 97.39765285072401 11.44
vertex 63.65401644025085 97.39765285072401 8.140000000000002
vertex 194.1540164402509 97.39765285072401 8.140000000000002
endloop
endfacet
facet normal 0.0 -1.0 0.0
outer loop
vertex 63.65401644025085 97.39765285072401 8.140000000000002
vertex 194.1540164402509 97.39765285072401 11.44
vertex 116.735300848494 97.39765285072401 11.439999999999998
endloop
endfacet
facet normal 0.0 -1.0 0.0
outer loop
vertex 116.735300848494 97.39765285072401 11.439999999999998
vertex 194.1540164402509 97.39765285072401 11.44
vertex 172.81658525673714 97.39765285072401 13.439999999999996
endloop
endfacet
facet normal 0.0 -1.0 0.0
outer loop
vertex 116.735300848494 97.39765285072401 11.439999999999998
vertex 172.81658525673714 97.39765285072401 13.439999999999996
vertex 172.81658525673714 97.39765285072401 18.439999999999994
endloop
endfacet
facet normal 0.0 -1.0 0.0
outer loop
vertex 172.81658525673714 97.39765285072401 13.439999999999996
vertex 194.1540164402509 97.39765285072401 11.44
vertex 183.5540164402509 97.39765285072401 13.439999999999996
endloop
endfacet
facet normal 0.0 -1.0 0.0
outer loop
vertex 63.65401644025085 97.39765285072401 11.439999999999998
vertex 63.65401644025085 97.39765285072401 8.140000000000002
vertex 116.735300848494 97.39765285072401 11.439999999999998
endloop
endfacet
facet normal 0.5510615347417097 -0.0 0.8344646097517326
outer loop
vertex 194.1540164402509 97.39765285072401 11.44
vertex 183.5540164402509 103.51765285072396 18.439999999999994
vertex 183.5540164402509 97.39765285072401 18.439999999999994
endloop
endfacet
facet normal 0.5510615347417097 -0.0 0.8344646097517326
outer loop
vertex 183.5540164402509 103.51765285072396 18.439999999999994
vertex 194.1540164402509 97.39765285072401 11.44
vertex 194.1540164402509 103.51765285072396 11.44
endloop
endfacet
facet normal 2.1123344438561026e-17 2.835413377237758e-33 -1.0
outer loop
vertex 60.65401644025087 103.51765285072396 -1.762479051592436e-15
vertex 91.54401644025084 73.80015285072405 0.0
vertex 60.65401644025089 9.117652850724033 -1.762479051592436e-15
endloop
endfacet
facet normal 2.1123344438561026e-17 2.835413377237758e-33 -1.0
outer loop
vertex 91.54401644025084 73.80015285072405 0.0
vertex 60.65401644025087 103.51765285072396 -1.762479051592436e-15
vertex 194.1540164402509 103.51765285072396 1.0574874309554614e-15
endloop
endfacet
facet normal 2.1123344438561026e-17 2.835413377237758e-33 -1.0
outer loop
vertex 91.54401644025084 73.80015285072405 0.0
vertex 194.1540164402509 103.51765285072396 1.0574874309554614e-15
vertex 107.49401644025085 73.80015285072405 -2.114974861910923e-15
endloop
endfacet
facet normal 2.1123344438561026e-17 2.835413377237758e-33 -1.0
outer loop
vertex 107.49401644025085 73.80015285072405 -2.114974861910923e-15
vertex 194.1540164402509 103.51765285072396 1.0574874309554614e-15
vertex 129.3740164402508 73.80015285072405 1.5862311464331924e-14
endloop
endfacet
facet normal 2.1123344438561026e-17 2.835413377237758e-33 -1.0
outer loop
vertex 107.49401644025085 73.80015285072405 -2.114974861910923e-15
vertex 129.3740164402508 73.80015285072405 1.5862311464331924e-14
vertex 107.49401644025085 57.45265285072404 -2.114974861910923e-15
endloop
endfacet
facet normal 2.1123344438561026e-17 2.835413377237758e-33 -1.0
outer loop
vertex 107.49401644025085 57.45265285072404 -2.114974861910923e-15
vertex 129.3740164402508 73.80015285072405 1.5862311464331924e-14
vertex 107.49401644025085 36.945152850724035 2.8199664825478975e-15
endloop
endfacet
facet normal 2.1123344438561026e-17 2.835413377237758e-33 -1.0
outer loop
vertex 107.49401644025085 36.945152850724035 2.8199664825478975e-15
vertex 129.3740164402508 73.80015285072405 1.5862311464331924e-14
vertex 107.49401644025085 19.557652850724033 2.8199664825478975e-15
endloop
endfacet
facet normal 2.1123344438561026e-17 2.835413377237758e-33 -1.0
outer loop
vertex 129.3740164402508 73.80015285072405 1.5862311464331924e-14
vertex 194.1540164402509 103.51765285072396 1.0574874309554614e-15
vertex 145.32401644025086 73.80015285072405 1.5862311464331924e-14
endloop
endfacet
facet normal 2.1123344438561026e-17 2.835413377237758e-33 -1.0
outer loop
vertex 145.32401644025086 73.80015285072405 1.5862311464331924e-14
vertex 194.1540164402509 103.51765285072396 1.0574874309554614e-15
vertex 145.32401644025086 57.45265285072404 -2.114974861910923e-15
endloop
endfacet
facet normal 2.1123344438561026e-17 2.835413377237758e-33 -1.0
outer loop
vertex 145.32401644025086 57.45265285072404 -2.114974861910923e-15
vertex 194.1540164402509 103.51765285072396 1.0574874309554614e-15
vertex 145.32401644025086 36.945152850724035 2.8199664825478975e-15
endloop
endfacet
facet normal 2.1123344438561026e-17 2.835413377237758e-33 -1.0
outer loop
vertex 145.32401644025086 36.945152850724035 2.8199664825478975e-15
vertex 194.1540164402509 103.51765285072396 1.0574874309554614e-15
vertex 145.32401644025086 19.557652850724033 2.8199664825478975e-15
endloop
endfacet
facet normal 2.1123344438561026e-17 2.835413377237758e-33 -1.0
outer loop
vertex 60.65401644025089 9.117652850724033 -1.762479051592436e-15
vertex 91.54401644025084 19.557652850724033 5.287437154777308e-15
vertex 194.1540164402509 9.117652850724033 1.0574874309554614e-15
endloop
endfacet
facet normal 2.1123344438561026e-17 2.835413377237758e-33 -1.0
outer loop
vertex 91.54401644025084 19.557652850724033 5.287437154777308e-15
vertex 60.65401644025089 9.117652850724033 -1.762479051592436e-15
vertex 91.54401644025084 73.80015285072405 0.0
endloop
endfacet
facet normal 2.1123344438561026e-17 2.835413377237758e-33 -1.0
outer loop
vertex 91.54401644025084 19.557652850724033 5.287437154777308e-15
vertex 91.54401644025084 73.80015285072405 0.0
vertex 91.54401644025084 57.45265285072404 -2.114974861910923e-15
endloop
endfacet
facet normal 2.1123344438561026e-17 2.835413377237758e-33 -1.0
outer loop
vertex 91.54401644025084 19.557652850724033 5.287437154777308e-15
vertex 91.54401644025084 57.45265285072404 -2.114974861910923e-15
vertex 91.54401644025084 36.945152850724035 2.8199664825478975e-15
endloop
endfacet
facet normal 2.1123344438561026e-17 2.835413377237758e-33 -1.0
outer loop
vertex 194.1540164402509 9.117652850724033 1.0574874309554614e-15
vertex 91.54401644025084 19.557652850724033 5.287437154777308e-15
vertex 107.49401644025085 19.557652850724033 2.8199664825478975e-15
endloop
endfacet
facet normal 2.1123344438561026e-17 2.835413377237758e-33 -1.0
outer loop
vertex 194.1540164402509 9.117652850724033 1.0574874309554614e-15
vertex 107.49401644025085 19.557652850724033 2.8199664825478975e-15
vertex 129.3740164402508 19.557652850724033 1.973976537783528e-14
endloop
endfacet
facet normal 2.1123344438561026e-17 2.835413377237758e-33 -1.0
outer loop
vertex 129.3740164402508 19.557652850724033 1.973976537783528e-14
vertex 107.49401644025085 19.557652850724033 2.8199664825478975e-15
vertex 129.3740164402508 73.80015285072405 1.5862311464331924e-14
endloop
endfacet
facet normal 2.1123344438561026e-17 2.835413377237758e-33 -1.0
outer loop
vertex 129.3740164402508 19.557652850724033 1.973976537783528e-14
vertex 129.3740164402508 73.80015285072405 1.5862311464331924e-14
vertex 129.3740164402508 57.45265285072404 1.5862311464331924e-14
endloop
endfacet
facet normal 2.1123344438561026e-17 2.835413377237758e-33 -1.0
outer loop
vertex 129.3740164402508 19.557652850724033 1.973976537783528e-14
vertex 129.3740164402508 57.45265285072404 1.5862311464331924e-14
vertex 129.3740164402508 36.945152850724035 2.8199664825478975e-15
endloop
endfacet
facet normal 2.1123344438561026e-17 2.835413377237758e-33 -1.0
outer loop
vertex 194.1540164402509 9.117652850724033 1.0574874309554614e-15
vertex 129.3740164402508 19.557652850724033 1.973976537783528e-14
vertex 145.32401644025086 19.557652850724033 2.8199664825478975e-15
endloop
endfacet
facet normal 2.1123344438561026e-17 2.835413377237758e-33 -1.0
outer loop
vertex 194.1540164402509 9.117652850724033 1.0574874309554614e-15
vertex 145.32401644025086 19.557652850724033 2.8199664825478975e-15
vertex 194.1540164402509 103.51765285072396 1.0574874309554614e-15
endloop
endfacet
facet normal 2.1123344438561026e-17 2.835413377237758e-33 -1.0
outer loop
vertex 145.32401644025086 57.45265285072404 -2.114974861910923e-15
vertex 129.3740164402508 36.945152850724035 2.8199664825478975e-15
vertex 129.3740164402508 57.45265285072404 1.5862311464331924e-14
endloop
endfacet
facet normal 2.1123344438561026e-17 2.835413377237758e-33 -1.0
outer loop
vertex 129.3740164402508 36.945152850724035 2.8199664825478975e-15
vertex 145.32401644025086 57.45265285072404 -2.114974861910923e-15
vertex 145.32401644025086 36.945152850724035 2.8199664825478975e-15
endloop
endfacet
facet normal 2.1123344438561026e-17 2.835413377237758e-33 -1.0
outer loop
vertex 107.49401644025085 57.45265285072404 -2.114974861910923e-15
vertex 91.54401644025084 36.945152850724035 2.8199664825478975e-15
vertex 91.54401644025084 57.45265285072404 -2.114974861910923e-15
endloop
endfacet
facet normal 2.1123344438561026e-17 2.835413377237758e-33 -1.0
outer loop
vertex 91.54401644025084 36.945152850724035 2.8199664825478975e-15
vertex 107.49401644025085 57.45265285072404 -2.114974861910923e-15
vertex 107.49401644025085 36.945152850724035 2.8199664825478975e-15
endloop
endfacet
facet normal 1.0 -0.0 -0.0
outer loop
vertex 194.1540164402509 9.117652850724033 1.0574874309554614e-15
vertex 194.1540164402509 12.117652850724035 4.739999999999999
vertex 194.1540164402509 9.117652850724033 11.44
endloop
endfacet
facet normal 1.0 -0.0 -0.0
outer loop
vertex 194.1540164402509 12.117652850724035 4.739999999999999
vertex 194.1540164402509 9.117652850724033 1.0574874309554614e-15
vertex 194.1540164402509 19.557652850724033 2.300000000000001
endloop
endfacet
facet normal 1.0 -0.0 -0.0
outer loop
vertex 194.1540164402509 19.557652850724033 2.300000000000001
vertex 194.1540164402509 9.117652850724033 1.0574874309554614e-15
vertex 194.1540164402509 103.51765285072396 1.0574874309554614e-15
endloop
endfacet
facet normal 1.0 -0.0 -0.0
outer loop
vertex 194.1540164402509 19.557652850724033 2.300000000000001
vertex 194.1540164402509 103.51765285072396 1.0574874309554614e-15
vertex 194.1540164402509 93.26765285072405 2.300000000000001
endloop
endfacet
facet normal 1.0 -0.0 -0.0
outer loop
vertex 194.1540164402509 93.26765285072405 2.300000000000001
vertex 194.1540164402509 103.51765285072396 1.0574874309554614e-15
vertex 194.1540164402509 93.26765285072405 4.739999999999999
endloop
endfacet
facet normal 1.0 -0.0 -0.0
outer loop
vertex 194.1540164402509 93.26765285072405 4.739999999999999
vertex 194.1540164402509 103.51765285072396 1.0574874309554614e-15
vertex 194.1540164402509 100.51765285072402 4.739999999999999
endloop
endfacet
facet normal 1.0 -0.0 -0.0
outer loop
vertex 194.1540164402509 100.51765285072402 4.739999999999999
vertex 194.1540164402509 103.51765285072396 1.0574874309554614e-15
vertex 194.1540164402509 100.51765285072402 8.140000000000002
endloop
endfacet
facet normal 1.0 -0.0 -0.0
outer loop
vertex 194.1540164402509 100.51765285072402 8.140000000000002
vertex 194.1540164402509 97.39765285072401 11.44
vertex 194.1540164402509 97.39765285072401 8.140000000000002
endloop
endfacet
facet normal 1.0 -0.0 -0.0
outer loop
vertex 194.1540164402509 97.39765285072401 11.44
vertex 194.1540164402509 100.51765285072402 8.140000000000002
vertex 194.1540164402509 103.51765285072396 11.44
endloop
endfacet
facet normal 1.0 -0.0 -0.0
outer loop
vertex 194.1540164402509 103.51765285072396 11.44
vertex 194.1540164402509 100.51765285072402 8.140000000000002
vertex 194.1540164402509 103.51765285072396 1.0574874309554614e-15
endloop
endfacet
facet normal 1.0 -0.0 -0.0
outer loop
vertex 194.1540164402509 19.557652850724033 4.739999999999999
vertex 194.1540164402509 12.117652850724035 4.739999999999999
vertex 194.1540164402509 19.557652850724033 2.300000000000001
endloop
endfacet
facet normal 1.0 -0.0 -0.0
outer loop
vertex 194.1540164402509 9.117652850724033 11.44
vertex 194.1540164402509 12.117652850724035 8.140000000000002
vertex 194.1540164402509 15.237652850724043 11.44
endloop
endfacet
facet normal 1.0 -0.0 -0.0
outer loop
vertex 194.1540164402509 12.117652850724035 8.140000000000002
vertex 194.1540164402509 9.117652850724033 11.44
vertex 194.1540164402509 12.117652850724035 4.739999999999999
endloop
endfacet
facet normal 1.0 -0.0 -0.0
outer loop
vertex 194.1540164402509 15.237652850724043 11.44
vertex 194.1540164402509 12.117652850724035 8.140000000000002
vertex 194.1540164402509 15.237652850724043 8.140000000000002
endloop
endfacet
facet normal 0.5510615347417097 -0.0 0.8344646097517326
outer loop
vertex 194.1540164402509 9.117652850724033 11.44
vertex 183.5540164402509 15.237652850724043 18.439999999999994
vertex 183.5540164402509 9.117652850724033 18.439999999999994
endloop
endfacet
facet normal 0.5510615347417097 -0.0 0.8344646097517326
outer loop
vertex 183.5540164402509 15.237652850724043 18.439999999999994
vertex 194.1540164402509 9.117652850724033 11.44
vertex 194.1540164402509 15.237652850724043 11.44
endloop
endfacet
facet normal -0.0 -0.0 1.0
outer loop
vertex 183.5540164402509 9.117652850724033 18.439999999999994
vertex 172.81658525673714 15.237652850724043 18.439999999999994
vertex 172.81658525673714 9.117652850724033 18.439999999999994
endloop
endfacet
facet normal -0.0 -0.0 1.0
outer loop
vertex 172.81658525673714 15.237652850724043 18.439999999999994
vertex 183.5540164402509 9.117652850724033 18.439999999999994
vertex 183.5540164402509 15.237652850724043 18.439999999999994
endloop
endfacet
facet normal -0.12385771808686241 -4.3596176147359485e-18 0.9922999877407614
outer loop
vertex 172.81658525673714 9.117652850724033 18.439999999999994
vertex 116.73530084849403 15.23765285072402 11.439999999999998
vertex 116.73530084849403 9.117652850724033 11.439999999999998
endloop
endfacet
facet normal -0.12385771808686241 -4.3596176147359485e-18 0.9922999877407614
outer loop
vertex 116.73530084849403 15.23765285072402 11.439999999999998
vertex 172.81658525673714 9.117652850724033 18.439999999999994
vertex 172.81658525673714 15.237652850724043 18.439999999999994
endloop
endfacet
facet normal -0.0 -0.0 1.0
outer loop
vertex 62.154016440250885 9.117652850724033 11.439999999999998
vertex 63.65401644025085 15.237652850724032 11.439999999999998
vertex 62.154016440250885 103.51765285072396 11.439999999999998
endloop
endfacet
facet normal -0.0 -0.0 1.0
outer loop
vertex 63.65401644025085 15.237652850724032 11.439999999999998
vertex 62.154016440250885 9.117652850724033 11.439999999999998
vertex 116.73530084849403 9.117652850724033 11.439999999999998
endloop
endfacet
facet normal -0.0 -0.0 1.0
outer loop
vertex 63.65401644025085 15.237652850724032 11.439999999999998
vertex 116.73530084849403 9.117652850724033 11.439999999999998
vertex 116.73530084849403 15.23765285072402 11.439999999999998
endloop
endfacet
facet normal -0.0 -0.0 1.0
outer loop
vertex 62.154016440250885 103.51765285072396 11.439999999999998
vertex 63.65401644025085 97.39765285072401 11.439999999999998
vertex 116.735300848494 103.51765285072396 11.439999999999998
endloop
endfacet
facet normal -0.0 -0.0 1.0
outer loop
vertex 63.65401644025085 97.39765285072401 11.439999999999998
vertex 62.154016440250885 103.51765285072396 11.439999999999998
vertex 63.65401644025085 15.237652850724032 11.439999999999998
endloop
endfacet
facet normal -0.0 -0.0 1.0
outer loop
vertex 116.735300848494 103.51765285072396 11.439999999999998
vertex 63.65401644025085 97.39765285072401 11.439999999999998
vertex 116.735300848494 97.39765285072401 11.439999999999998
endloop
endfacet
facet normal -0.7071067811865469 -3.951665751072858e-33 0.7071067811865481
outer loop
vertex 62.154016440250885 9.117652850724033 11.439999999999998
vertex 60.65401644025089 103.51765285072396 9.940000000000003
vertex 60.65401644025089 9.117652850724033 9.940000000000003
endloop
endfacet
facet normal -0.7071067811865469 -3.951665751072858e-33 0.7071067811865481
outer loop
vertex 60.65401644025089 103.51765285072396 9.940000000000003
vertex 62.154016440250885 9.117652850724033 11.439999999999998
vertex 62.154016440250885 103.51765285072396 11.439999999999998
endloop
endfacet
facet normal -1.0 -1.2207647110596968e-16 1.0310663555933809e-15
outer loop
vertex 60.65401644025089 103.51765285072396 9.940000000000003
vertex 60.65401644025089 9.117652850724033 -1.762479051592436e-15
vertex 60.65401644025089 9.117652850724033 9.940000000000003
endloop
endfacet
facet normal -1.0 -1.2207647110596968e-16 1.0310663555933809e-15
outer loop
vertex 60.65401644025089 9.117652850724033 -1.762479051592436e-15
vertex 60.65401644025089 103.51765285072396 9.940000000000003
vertex 60.65401644025087 103.51765285072396 -1.762479051592436e-15
endloop
endfacet
facet normal -0.0 -0.0 1.0
outer loop
vertex 63.65401644025085 12.117652850724035 4.739999999999999
vertex 194.1540164402509 19.557652850724033 4.739999999999999
vertex 63.65401644025084 19.557652850724033 4.739999999999999
endloop
endfacet
facet normal -0.0 -0.0 1.0
outer loop
vertex 194.1540164402509 19.557652850724033 4.739999999999999
vertex 63.65401644025085 12.117652850724035 4.739999999999999
vertex 194.1540164402509 12.117652850724035 4.739999999999999
endloop
endfacet
facet normal -0.0 1.0 -0.0
outer loop
vertex 63.65401644025084 19.557652850724033 4.739999999999999
vertex 91.54401644025084 19.557652850724033 2.300000000000001
vertex 63.65401644025084 19.557652850724033 2.300000000000001
endloop
endfacet
facet normal -0.0 1.0 -0.0
outer loop
vertex 91.54401644025084 19.557652850724033 2.300000000000001
vertex 63.65401644025084 19.557652850724033 4.739999999999999
vertex 129.3740164402508 19.557652850724033 2.3000000000000154
endloop
endfacet
facet normal -0.0 1.0 -0.0
outer loop
vertex 129.3740164402508 19.557652850724033 1.973976537783528e-14
vertex 145.32401644025086 19.557652850724033 2.2999999999999985
vertex 145.32401644025086 19.557652850724033 2.8199664825478975e-15
endloop
endfacet
facet normal -0.0 1.0 -0.0
outer loop
vertex 145.32401644025086 19.557652850724033 2.2999999999999985
vertex 129.3740164402508 19.557652850724033 1.973976537783528e-14
vertex 129.3740164402508 19.557652850724033 2.3000000000000154
endloop
endfacet
facet normal -0.0 1.0 -0.0
outer loop
vertex 145.32401644025086 19.557652850724033 2.2999999999999985
vertex 129.3740164402508 19.557652850724033 2.3000000000000154
vertex 194.1540164402509 19.557652850724033 2.300000000000001
endloop
endfacet
facet normal -0.0 1.0 -0.0
outer loop
vertex 194.1540164402509 19.557652850724033 2.300000000000001
vertex 129.3740164402508 19.557652850724033 2.3000000000000154
vertex 194.1540164402509 19.557652850724033 4.739999999999999
endloop
endfacet
facet normal -0.0 1.0 -0.0
outer loop
vertex 194.1540164402509 19.557652850724033 4.739999999999999
vertex 129.3740164402508 19.557652850724033 2.3000000000000154
vertex 63.65401644025084 19.557652850724033 4.739999999999999
endloop
endfacet
facet normal -0.0 1.0 -0.0
outer loop
vertex 91.54401644025084 19.557652850724033 5.287437154777308e-15
vertex 107.49401644025085 19.557652850724033 2.2999999999999985
vertex 107.49401644025085 19.557652850724033 2.8199664825478975e-15
endloop
endfacet
facet normal -0.0 1.0 -0.0
outer loop
vertex 107.49401644025085 19.557652850724033 2.2999999999999985
vertex 91.54401644025084 19.557652850724033 5.287437154777308e-15
vertex 91.54401644025084 19.557652850724033 2.300000000000001
endloop
endfacet
facet normal -0.0 1.0 -0.0
outer loop
vertex 107.49401644025085 19.557652850724033 2.2999999999999985
vertex 91.54401644025084 19.557652850724033 2.300000000000001
vertex 129.3740164402508 19.557652850724033 2.3000000000000154
endloop
endfacet
facet normal -0.0 -0.0 1.0
outer loop
vertex 194.1540164402509 93.26765285072405 4.739999999999999
vertex 63.65401644025085 100.51765285072402 4.739999999999999
vertex 63.65401644025084 93.26765285072405 4.739999999999999
endloop
endfacet
facet normal -0.0 -0.0 1.0
outer loop
vertex 63.65401644025085 100.51765285072402 4.739999999999999
vertex 194.1540164402509 93.26765285072405 4.739999999999999
vertex 194.1540164402509 100.51765285072402 4.739999999999999
endloop
endfacet
facet normal 0.0 -1.0 0.0
outer loop
vertex 194.1540164402509 93.26765285072405 4.739999999999999
vertex 63.65401644025084 93.26765285072405 2.300000000000001
vertex 194.1540164402509 93.26765285072405 2.300000000000001
endloop
endfacet
facet normal 0.0 -1.0 0.0
outer loop
vertex 63.65401644025084 93.26765285072405 2.300000000000001
vertex 194.1540164402509 93.26765285072405 4.739999999999999
vertex 63.65401644025084 93.26765285072405 4.739999999999999
endloop
endfacet
facet normal -6.59230705189618e-18 2.090398309906918e-17 1.0
outer loop
vertex 129.3740164402508 19.557652850724033 2.3000000000000154
vertex 107.49401644025085 36.945152850724035 2.2999999999999985
vertex 107.49401644025085 19.557652850724033 2.2999999999999985
endloop
endfacet
facet normal -6.59230705189618e-18 2.090398309906918e-17 1.0
outer loop
vertex 107.49401644025085 36.945152850724035 2.2999999999999985
vertex 129.3740164402508 19.557652850724033 2.3000000000000154
vertex 107.49401644025085 57.45265285072404 2.2999999999999936
endloop
endfacet
facet normal -6.59230705189618e-18 2.090398309906918e-17 1.0
outer loop
vertex 107.49401644025085 57.45265285072404 2.2999999999999936
vertex 129.3740164402508 19.557652850724033 2.3000000000000154
vertex 107.49401644025085 73.80015285072405 2.2999999999999936
endloop
endfacet
facet normal -6.59230705189618e-18 2.090398309906918e-17 1.0
outer loop
vertex 194.1540164402509 19.557652850724033 2.300000000000001
vertex 145.32401644025086 36.945152850724035 2.2999999999999985
vertex 145.32401644025086 19.557652850724033 2.2999999999999985
endloop
endfacet
facet normal -6.59230705189618e-18 2.090398309906918e-17 1.0
outer loop
vertex 145.32401644025086 36.945152850724035 2.2999999999999985
vertex 194.1540164402509 19.557652850724033 2.300000000000001
vertex 145.32401644025086 57.45265285072404 2.2999999999999936
endloop
endfacet
facet normal -6.59230705189618e-18 2.090398309906918e-17 1.0
outer loop
vertex 145.32401644025086 57.45265285072404 2.2999999999999936
vertex 194.1540164402509 19.557652850724033 2.300000000000001
vertex 145.32401644025086 73.80015285072405 2.300000000000012
endloop
endfacet
facet normal -6.59230705189618e-18 2.090398309906918e-17 1.0
outer loop
vertex 91.54401644025084 19.557652850724033 2.300000000000001
vertex 63.65401644025084 93.26765285072405 2.300000000000001
vertex 63.65401644025084 19.557652850724033 2.300000000000001
endloop
endfacet
facet normal -6.59230705189618e-18 2.090398309906918e-17 1.0
outer loop
vertex 63.65401644025084 93.26765285072405 2.300000000000001
vertex 91.54401644025084 19.557652850724033 2.300000000000001
vertex 91.54401644025084 73.80015285072405 2.2999999999999963
endloop
endfacet
facet normal -6.59230705189618e-18 2.090398309906918e-17 1.0
outer loop
vertex 63.65401644025084 93.26765285072405 2.300000000000001
vertex 91.54401644025084 73.80015285072405 2.2999999999999963
vertex 194.1540164402509 93.26765285072405 2.300000000000001
endloop
endfacet
facet normal -6.59230705189618e-18 2.090398309906918e-17 1.0
outer loop
vertex 91.54401644025084 73.80015285072405 2.2999999999999963
vertex 91.54401644025084 19.557652850724033 2.300000000000001
vertex 91.54401644025084 36.945152850724035 2.2999999999999985
endloop
endfacet
facet normal -6.59230705189618e-18 2.090398309906918e-17 1.0
outer loop
vertex 91.54401644025084 73.80015285072405 2.2999999999999963
vertex 91.54401644025084 36.945152850724035 2.2999999999999985
vertex 91.54401644025084 57.45265285072404 2.2999999999999936
endloop
endfacet
facet normal -6.59230705189618e-18 2.090398309906918e-17 1.0
outer loop
vertex 194.1540164402509 93.26765285072405 2.300000000000001
vertex 91.54401644025084 73.80015285072405 2.2999999999999963
vertex 107.49401644025085 73.80015285072405 2.2999999999999936
endloop
endfacet
facet normal -6.59230705189618e-18 2.090398309906918e-17 1.0
outer loop
vertex 194.1540164402509 93.26765285072405 2.300000000000001
vertex 107.49401644025085 73.80015285072405 2.2999999999999936
vertex 129.3740164402508 73.80015285072405 2.300000000000012
endloop
endfacet
facet normal -6.59230705189618e-18 2.090398309906918e-17 1.0
outer loop
vertex 129.3740164402508 73.80015285072405 2.300000000000012
vertex 107.49401644025085 73.80015285072405 2.2999999999999936
vertex 129.3740164402508 19.557652850724033 2.3000000000000154
endloop
endfacet
facet normal -6.59230705189618e-18 2.090398309906918e-17 1.0
outer loop
vertex 129.3740164402508 73.80015285072405 2.300000000000012
vertex 129.3740164402508 19.557652850724033 2.3000000000000154
vertex 129.3740164402508 36.945152850724035 2.2999999999999985
endloop
endfacet
facet normal -6.59230705189618e-18 2.090398309906918e-17 1.0
outer loop
vertex 129.3740164402508 73.80015285072405 2.300000000000012
vertex 129.3740164402508 36.945152850724035 2.2999999999999985
vertex 129.3740164402508 57.45265285072404 2.300000000000012
endloop
endfacet
facet normal -6.59230705189618e-18 2.090398309906918e-17 1.0
outer loop
vertex 194.1540164402509 93.26765285072405 2.300000000000001
vertex 129.3740164402508 73.80015285072405 2.300000000000012
vertex 145.32401644025086 73.80015285072405 2.300000000000012
endloop
endfacet
facet normal -6.59230705189618e-18 2.090398309906918e-17 1.0
outer loop
vertex 194.1540164402509 93.26765285072405 2.300000000000001
vertex 145.32401644025086 73.80015285072405 2.300000000000012
vertex 194.1540164402509 19.557652850724033 2.300000000000001
endloop
endfacet
facet normal -6.59230705189618e-18 2.090398309906918e-17 1.0
outer loop
vertex 145.32401644025086 36.945152850724035 2.2999999999999985
vertex 129.3740164402508 57.45265285072404 2.300000000000012
vertex 129.3740164402508 36.945152850724035 2.2999999999999985
endloop
endfacet
facet normal -6.59230705189618e-18 2.090398309906918e-17 1.0
outer loop
vertex 129.3740164402508 57.45265285072404 2.300000000000012
vertex 145.32401644025086 36.945152850724035 2.2999999999999985
vertex 145.32401644025086 57.45265285072404 2.2999999999999936
endloop
endfacet
facet normal -6.59230705189618e-18 2.090398309906918e-17 1.0
outer loop
vertex 107.49401644025085 36.945152850724035 2.2999999999999985
vertex 91.54401644025084 57.45265285072404 2.2999999999999936
vertex 91.54401644025084 36.945152850724035 2.2999999999999985
endloop
endfacet
facet normal -6.59230705189618e-18 2.090398309906918e-17 1.0
outer loop
vertex 91.54401644025084 57.45265285072404 2.2999999999999936
vertex 107.49401644025085 36.945152850724035 2.2999999999999985
vertex 107.49401644025085 57.45265285072404 2.2999999999999936
endloop
endfacet
facet normal -0.0 1.0 7.546935837985657e-17
outer loop
vertex 91.54401644025084 57.45265285072404 2.2999999999999936
vertex 107.49401644025085 57.45265285072404 -2.114974861910923e-15
vertex 91.54401644025084 57.45265285072404 -2.114974861910923e-15
endloop
endfacet
facet normal -0.0 1.0 7.546935837985657e-17
outer loop
vertex 107.49401644025085 57.45265285072404 -2.114974861910923e-15
vertex 91.54401644025084 57.45265285072404 2.2999999999999936
vertex 107.49401644025085 57.45265285072404 2.2999999999999936
endloop
endfacet
facet normal -1.0 -0.0 7.735017781283416e-17
outer loop
vertex 107.49401644025085 73.80015285072405 2.2999999999999936
vertex 107.49401644025085 57.45265285072404 -2.114974861910923e-15
vertex 107.49401644025085 57.45265285072404 2.2999999999999936
endloop
endfacet
facet normal -1.0 -0.0 7.735017781283416e-17
outer loop
vertex 107.49401644025085 57.45265285072404 -2.114974861910923e-15
vertex 107.49401644025085 73.80015285072405 2.2999999999999936
vertex 107.49401644025085 73.80015285072405 -2.114974861910923e-15
endloop
endfacet
facet normal -1.1675136580204822e-32 -1.0 -7.546935837985657e-17
outer loop
vertex 107.49401644025085 73.80015285072405 2.2999999999999936
vertex 91.54401644025084 73.80015285072405 0.0
vertex 107.49401644025085 73.80015285072405 -2.114974861910923e-15
endloop
endfacet
facet normal -1.1675136580204822e-32 -1.0 -7.546935837985657e-17
outer loop
vertex 91.54401644025084 73.80015285072405 0.0
vertex 107.49401644025085 73.80015285072405 2.2999999999999936
vertex 91.54401644025084 73.80015285072405 2.2999999999999963
endloop
endfacet
facet normal 1.0 1.1675136580204821e-32 -7.735017781283416e-17
outer loop
vertex 91.54401644025084 73.80015285072405 0.0
vertex 91.54401644025084 57.45265285072404 2.2999999999999936
vertex 91.54401644025084 57.45265285072404 -2.114974861910923e-15
endloop
endfacet
facet normal 1.0 1.1675136580204821e-32 -7.735017781283416e-17
outer loop
vertex 91.54401644025084 57.45265285072404 2.2999999999999936
vertex 91.54401644025084 73.80015285072405 0.0
vertex 91.54401644025084 73.80015285072405 2.2999999999999963
endloop
endfacet
facet normal -1.0 -0.0 7.735017781283416e-17
outer loop
vertex 107.49401644025085 36.945152850724035 2.2999999999999985
vertex 107.49401644025085 19.557652850724033 2.8199664825478975e-15
vertex 107.49401644025085 19.557652850724033 2.2999999999999985
endloop
endfacet
facet normal -1.0 -0.0 7.735017781283416e-17
outer loop
vertex 107.49401644025085 19.557652850724033 2.8199664825478975e-15
vertex 107.49401644025085 36.945152850724035 2.2999999999999985
vertex 107.49401644025085 36.945152850724035 2.8199664825478975e-15
endloop
endfacet
facet normal -0.0 -1.0 7.095530329919225e-17
outer loop
vertex 107.49401644025085 36.945152850724035 2.2999999999999985
vertex 91.54401644025084 36.945152850724035 2.8199664825478975e-15
vertex 107.49401644025085 36.945152850724035 2.8199664825478975e-15
endloop
endfacet
facet normal -0.0 -1.0 7.095530329919225e-17
outer loop
vertex 91.54401644025084 36.945152850724035 2.8199664825478975e-15
vertex 107.49401644025085 36.945152850724035 2.2999999999999985
vertex 91.54401644025084 36.945152850724035 2.2999999999999985
endloop
endfacet
facet normal 1.0 -1.0976810653912198e-32 -7.735017781283416e-17
outer loop
vertex 91.54401644025084 36.945152850724035 2.8199664825478975e-15
vertex 91.54401644025084 19.557652850724033 2.300000000000001
vertex 91.54401644025084 19.557652850724033 5.287437154777308e-15
endloop
endfacet
facet normal 1.0 -1.0976810653912198e-32 -7.735017781283416e-17
outer loop
vertex 91.54401644025084 19.557652850724033 2.300000000000001
vertex 91.54401644025084 36.945152850724035 2.8199664825478975e-15
vertex 91.54401644025084 36.945152850724035 2.2999999999999985
endloop
endfacet
facet normal -1.0 -0.0 5.304012192880048e-16
outer loop
vertex 145.32401644025086 36.945152850724035 2.2999999999999985
vertex 145.32401644025086 19.557652850724033 2.8199664825478975e-15
vertex 145.32401644025086 19.557652850724033 2.2999999999999985
endloop
endfacet
facet normal -1.0 -0.0 5.304012192880048e-16
outer loop
vertex 145.32401644025086 19.557652850724033 2.8199664825478975e-15
vertex 145.32401644025086 36.945152850724035 2.2999999999999985
vertex 145.32401644025086 36.945152850724035 2.8199664825478975e-15
endloop
endfacet
facet normal -0.0 -1.0 4.865506511944612e-16
outer loop
vertex 145.32401644025086 36.945152850724035 2.2999999999999985
vertex 129.3740164402508 36.945152850724035 2.8199664825478975e-15
vertex 145.32401644025086 36.945152850724035 2.8199664825478975e-15
endloop
endfacet
facet normal -0.0 -1.0 4.865506511944612e-16
outer loop
vertex 129.3740164402508 36.945152850724035 2.8199664825478975e-15
vertex 145.32401644025086 36.945152850724035 2.2999999999999985
vertex 129.3740164402508 36.945152850724035 2.2999999999999985
endloop
endfacet
facet normal 1.0 -5.161341172778298e-31 -5.304012192880048e-16
outer loop
vertex 129.3740164402508 36.945152850724035 2.8199664825478975e-15
vertex 129.3740164402508 19.557652850724033 2.3000000000000154
vertex 129.3740164402508 19.557652850724033 1.973976537783528e-14
endloop
endfacet
facet normal 1.0 -5.161341172778298e-31 -5.304012192880048e-16
outer loop
vertex 129.3740164402508 19.557652850724033 2.3000000000000154
vertex 129.3740164402508 36.945152850724035 2.8199664825478975e-15
vertex 129.3740164402508 36.945152850724035 2.2999999999999985
endloop
endfacet
facet normal 6.1973531112474895e-31 1.0 5.498481824818121e-16
outer loop
vertex 129.3740164402508 57.45265285072404 1.5862311464331924e-14
vertex 145.32401644025086 57.45265285072404 2.2999999999999936
vertex 145.32401644025086 57.45265285072404 -2.114974861910923e-15
endloop
endfacet
facet normal 6.1973531112474895e-31 1.0 5.498481824818121e-16
outer loop
vertex 145.32401644025086 57.45265285072404 2.2999999999999936
vertex 129.3740164402508 57.45265285072404 1.5862311464331924e-14
vertex 129.3740164402508 57.45265285072404 2.300000000000012
endloop
endfacet
facet normal -1.0 -6.197353111247488e-31 5.635512954935051e-16
outer loop
vertex 145.32401644025086 73.80015285072405 2.300000000000012
vertex 145.32401644025086 57.45265285072404 -2.114974861910923e-15
vertex 145.32401644025086 57.45265285072404 2.2999999999999936
endloop
endfacet
facet normal -1.0 -6.197353111247488e-31 5.635512954935051e-16
outer loop
vertex 145.32401644025086 57.45265285072404 -2.114974861910923e-15
vertex 145.32401644025086 73.80015285072405 2.300000000000012
vertex 145.32401644025086 73.80015285072405 1.5862311464331924e-14
endloop
endfacet
facet normal -0.0 -1.0 -5.498481824818121e-16
outer loop
vertex 145.32401644025086 73.80015285072405 2.300000000000012
vertex 129.3740164402508 73.80015285072405 1.5862311464331924e-14
vertex 145.32401644025086 73.80015285072405 1.5862311464331924e-14
endloop
endfacet
facet normal -0.0 -1.0 -5.498481824818121e-16
outer loop
vertex 129.3740164402508 73.80015285072405 1.5862311464331924e-14
vertex 145.32401644025086 73.80015285072405 2.300000000000012
vertex 129.3740164402508 73.80015285072405 2.300000000000012
endloop
endfacet
facet normal 1.0 -0.0 -5.635512954935051e-16
outer loop
vertex 129.3740164402508 73.80015285072405 1.5862311464331924e-14
vertex 129.3740164402508 57.45265285072404 2.300000000000012
vertex 129.3740164402508 57.45265285072404 1.5862311464331924e-14
endloop
endfacet
facet normal 1.0 -0.0 -5.635512954935051e-16
outer loop
vertex 129.3740164402508 57.45265285072404 2.300000000000012
vertex 129.3740164402508 73.80015285072405 1.5862311464331924e-14
vertex 129.3740164402508 73.80015285072405 2.300000000000012
endloop
endfacet
facet normal -0.0 -0.0 1.0
outer loop
vertex 45.002901868375076 38.95580771892395 7.299999999999996
vertex 29.617201868375076 52.90580771892396 7.299999999999996
vertex 29.617201868375076 38.95580771892395 7.299999999999996
endloop
endfacet
facet normal -0.0 -0.0 1.0
outer loop
vertex 29.617201868375076 52.90580771892396 7.299999999999996
vertex 45.002901868375076 38.95580771892395 7.299999999999996
vertex 45.002901868375076 52.90580771892396 7.299999999999996
endloop
endfacet
facet normal -0.0 -0.0 1.0
outer loop
vertex 45.002901868375076 58.85015285072404 7.299999999999996
vertex 29.617201868375076 72.80015285072405 7.299999999999996
vertex 29.617201868375076 58.85015285072404 7.299999999999996
endloop
endfacet
facet normal -0.0 -0.0 1.0
outer loop
vertex 29.617201868375076 72.80015285072405 7.299999999999996
vertex 45.002901868375076 58.85015285072404 7.299999999999996
vertex 45.002901868375076 72.80015285072405 7.299999999999996
endloop
endfacet
facet normal -0.0 -0.0 1.0
outer loop
vertex 45.002901868375076 79.15579284256908 7.299999999999996
vertex 29.617201868375076 93.10579284256909 7.299999999999996
vertex 29.617201868375076 79.15579284256908 7.299999999999996
endloop
endfacet
facet normal -0.0 -0.0 1.0
outer loop
vertex 29.617201868375076 93.10579284256909 7.299999999999996
vertex 45.002901868375076 79.15579284256908 7.299999999999996
vertex 45.002901868375076 93.10579284256909 7.299999999999996
endloop
endfacet
facet normal -0.0 -0.0 1.0
outer loop
vertex 45.002901868375076 18.007623647749593 7.299999999999996
vertex 29.617201868375076 31.9576236477496 7.299999999999996
vertex 29.617201868375076 18.007623647749593 7.299999999999996
endloop
endfacet
facet normal -0.0 -0.0 1.0
outer loop
vertex 29.617201868375076 31.9576236477496 7.299999999999996
vertex 45.002901868375076 18.007623647749593 7.299999999999996
vertex 45.002901868375076 31.9576236477496 7.299999999999996
endloop
endfacet
facet normal -0.0 -1.0 0.0
outer loop
vertex 45.002901868375076 18.007623647749593 7.299999999999996
vertex 29.617201868375076 18.007623647749593 2.300000000000003
vertex 45.002901868375076 18.007623647749593 2.300000000000003
endloop
endfacet
facet normal -0.0 -1.0 0.0
outer loop
vertex 29.617201868375076 18.007623647749593 2.300000000000003
vertex 45.002901868375076 18.007623647749593 7.299999999999996
vertex 29.617201868375076 18.007623647749593 7.299999999999996
endloop
endfacet
facet normal -1.0 -0.0 -0.0
outer loop
vertex 29.617201868375076 31.9576236477496 7.299999999999996
vertex 29.617201868375076 18.007623647749593 2.300000000000003
vertex 29.617201868375076 18.007623647749593 7.299999999999996
endloop
endfacet
facet normal -1.0 -0.0 -0.0
outer loop
vertex 29.617201868375076 18.007623647749593 2.300000000000003
vertex 29.617201868375076 31.9576236477496 7.299999999999996
vertex 29.617201868375076 31.9576236477496 2.300000000000003
endloop
endfacet
facet normal -0.0 1.0 -0.0
outer loop
vertex 29.617201868375076 31.9576236477496 7.299999999999996
vertex 45.002901868375076 31.9576236477496 2.300000000000003
vertex 29.617201868375076 31.9576236477496 2.300000000000003
endloop
endfacet
facet normal -0.0 1.0 -0.0
outer loop
vertex 45.002901868375076 31.9576236477496 2.300000000000003
vertex 29.617201868375076 31.9576236477496 7.299999999999996
vertex 45.002901868375076 31.9576236477496 7.299999999999996
endloop
endfacet
facet normal 1.0 -0.0 -0.0
outer loop
vertex 45.002901868375076 31.9576236477496 2.300000000000003
vertex 45.002901868375076 18.007623647749593 7.299999999999996
vertex 45.002901868375076 18.007623647749593 2.300000000000003
endloop
endfacet
facet normal 1.0 -0.0 -0.0
outer loop
vertex 45.002901868375076 18.007623647749593 7.299999999999996
vertex 45.002901868375076 31.9576236477496 2.300000000000003
vertex 45.002901868375076 31.9576236477496 7.299999999999996
endloop
endfacet
facet normal -0.0 1.0 -0.0
outer loop
vertex 29.617201868375076 52.90580771892396 7.299999999999996
vertex 45.002901868375076 52.90580771892396 2.3
vertex 29.617201868375076 52.90580771892396 2.3
endloop
endfacet
facet normal -0.0 1.0 -0.0
outer loop
vertex 45.002901868375076 52.90580771892396 2.3
vertex 29.617201868375076 52.90580771892396 7.299999999999996
vertex 45.002901868375076 52.90580771892396 7.299999999999996
endloop
endfacet
facet normal 1.0 -0.0 -0.0
outer loop
vertex 45.002901868375076 52.90580771892396 2.3
vertex 45.002901868375076 38.95580771892395 7.299999999999996
vertex 45.002901868375076 38.95580771892395 2.3
endloop
endfacet
facet normal 1.0 -0.0 -0.0
outer loop
vertex 45.002901868375076 38.95580771892395 7.299999999999996
vertex 45.002901868375076 52.90580771892396 2.3
vertex 45.002901868375076 52.90580771892396 7.299999999999996
endloop
endfacet
facet normal -0.0 -1.0 0.0
outer loop
vertex 45.002901868375076 38.95580771892395 7.299999999999996
vertex 29.617201868375076 38.95580771892395 2.3
vertex 45.002901868375076 38.95580771892395 2.3
endloop
endfacet
facet normal -0.0 -1.0 0.0
outer loop
vertex 29.617201868375076 38.95580771892395 2.3
vertex 45.002901868375076 38.95580771892395 7.299999999999996
vertex 29.617201868375076 38.95580771892395 7.299999999999996
endloop
endfacet
facet normal -1.0 -0.0 -0.0
outer loop
vertex 29.617201868375076 52.90580771892396 7.299999999999996
vertex 29.617201868375076 38.95580771892395 2.3
vertex 29.617201868375076 38.95580771892395 7.299999999999996
endloop
endfacet
facet normal -1.0 -0.0 -0.0
outer loop
vertex 29.617201868375076 38.95580771892395 2.3
vertex 29.617201868375076 52.90580771892396 7.299999999999996
vertex 29.617201868375076 52.90580771892396 2.3
endloop
endfacet
facet normal 1.0 -0.0 -0.0
outer loop
vertex 45.002901868375076 72.80015285072405 2.3
vertex 45.002901868375076 58.85015285072404 7.299999999999996
vertex 45.002901868375076 58.85015285072404 2.3
endloop
endfacet
facet normal 1.0 -0.0 -0.0
outer loop
vertex 45.002901868375076 58.85015285072404 7.299999999999996
vertex 45.002901868375076 72.80015285072405 2.3
vertex 45.002901868375076 72.80015285072405 7.299999999999996
endloop
endfacet
facet normal -0.0 -1.0 0.0
outer loop
vertex 45.002901868375076 58.85015285072404 7.299999999999996
vertex 29.617201868375076 58.85015285072404 2.3
vertex 45.002901868375076 58.85015285072404 2.3
endloop
endfacet
facet normal -0.0 -1.0 0.0
outer loop
vertex 29.617201868375076 58.85015285072404 2.3
vertex 45.002901868375076 58.85015285072404 7.299999999999996
vertex 29.617201868375076 58.85015285072404 7.299999999999996
endloop
endfacet
facet normal -1.0 -0.0 -0.0
outer loop
vertex 29.617201868375076 72.80015285072405 7.299999999999996
vertex 29.617201868375076 58.85015285072404 2.3
vertex 29.617201868375076 58.85015285072404 7.299999999999996
endloop
endfacet
facet normal -1.0 -0.0 -0.0
outer loop
vertex 29.617201868375076 58.85015285072404 2.3
vertex 29.617201868375076 72.80015285072405 7.299999999999996
vertex 29.617201868375076 72.80015285072405 2.3
endloop
endfacet
facet normal -0.0 1.0 -0.0
outer loop
vertex 29.617201868375076 72.80015285072405 7.299999999999996
vertex 45.002901868375076 72.80015285072405 2.3
vertex 29.617201868375076 72.80015285072405 2.3
endloop
endfacet
facet normal -0.0 1.0 -0.0
outer loop
vertex 45.002901868375076 72.80015285072405 2.3
vertex 29.617201868375076 72.80015285072405 7.299999999999996
vertex 45.002901868375076 72.80015285072405 7.299999999999996
endloop
endfacet
facet normal -0.0 1.0 -0.0
outer loop
vertex 29.617201868375076 93.10579284256909 7.299999999999996
vertex 45.002901868375076 93.10579284256909 2.3
vertex 29.617201868375076 93.10579284256909 2.3
endloop
endfacet
facet normal -0.0 1.0 -0.0
outer loop
vertex 45.002901868375076 93.10579284256909 2.3
vertex 29.617201868375076 93.10579284256909 7.299999999999996
vertex 45.002901868375076 93.10579284256909 7.299999999999996
endloop
endfacet
facet normal 1.0 -0.0 -0.0
outer loop
vertex 45.002901868375076 93.10579284256909 2.3
vertex 45.002901868375076 79.15579284256908 7.299999999999996
vertex 45.002901868375076 79.15579284256908 2.3
endloop
endfacet
facet normal 1.0 -0.0 -0.0
outer loop
vertex 45.002901868375076 79.15579284256908 7.299999999999996
vertex 45.002901868375076 93.10579284256909 2.3
vertex 45.002901868375076 93.10579284256909 7.299999999999996
endloop
endfacet
facet normal -0.0 -1.0 0.0
outer loop
vertex 45.002901868375076 79.15579284256908 7.299999999999996
vertex 29.617201868375076 79.15579284256908 2.3
vertex 45.002901868375076 79.15579284256908 2.3
endloop
endfacet
facet normal -0.0 -1.0 0.0
outer loop
vertex 29.617201868375076 79.15579284256908 2.3
vertex 45.002901868375076 79.15579284256908 7.299999999999996
vertex 29.617201868375076 79.15579284256908 7.299999999999996
endloop
endfacet
facet normal -1.0 -0.0 -0.0
outer loop
vertex 29.617201868375076 93.10579284256909 7.299999999999996
vertex 29.617201868375076 79.15579284256908 2.3
vertex 29.617201868375076 79.15579284256908 7.299999999999996
endloop
endfacet
facet normal -1.0 -0.0 -0.0
outer loop
vertex 29.617201868375076 79.15579284256908 2.3
vertex 29.617201868375076 93.10579284256909 7.299999999999996
vertex 29.617201868375076 93.10579284256909 2.3
endloop
endfacet
endsolid numpad1379
